STARTFONT 2.1
COMMENT
COMMENT Converted from OpenType font "fanwood-webfont.ttf" by "otf2bdf 3.0".
COMMENT
FONT -FreeType-Fanwood-Medium-R-Normal--21-150-100-100-P-86-ISO10646-1
SIZE 15 100 100
FONTBOUNDINGBOX 28 24 -7 -6
STARTPROPERTIES 19
FOUNDRY "FreeType"
FAMILY_NAME "Fanwood"
WEIGHT_NAME "Medium"
SLANT "R"
SETWIDTH_NAME "Normal"
ADD_STYLE_NAME ""
PIXEL_SIZE 21
POINT_SIZE 150
RESOLUTION_X 100
RESOLUTION_Y 100
SPACING "P"
AVERAGE_WIDTH 86
CHARSET_REGISTRY "ISO10646"
CHARSET_ENCODING "1"
FONT_ASCENT 18
FONT_DESCENT 8
COPYRIGHT "Copyright (c) 2011, Barry Schwartz"
_OTF_FONTFILE "fanwood-webfont.ttf"
_OTF_PSNAME "Fanwood"
ENDPROPERTIES
CHARS 417
STARTCHAR 0020
ENCODING 32
SWIDTH 192 0
DWIDTH 4 0
BBX 0 0 0 0
BITMAP
ENDCHAR
STARTCHAR 0021
ENCODING 33
SWIDTH 288 0
DWIDTH 6 0
BBX 2 14 2 0
BITMAP
C0
C0
C0
C0
C0
C0
C0
C0
C0
C0
00
00
C0
C0
ENDCHAR
STARTCHAR 0022
ENCODING 34
SWIDTH 288 0
DWIDTH 6 0
BBX 4 4 1 10
BITMAP
90
B0
A0
A0
ENDCHAR
STARTCHAR 0023
ENCODING 35
SWIDTH 432 0
DWIDTH 9 0
BBX 8 11 1 0
BITMAP
24
24
24
FF
24
24
24
FF
48
48
48
ENDCHAR
STARTCHAR 0024
ENCODING 36
SWIDTH 480 0
DWIDTH 10 0
BBX 8 17 1 -3
BITMAP
10
3C
52
D2
D0
D0
70
38
1E
13
13
13
92
7C
10
10
10
ENDCHAR
STARTCHAR 0025
ENCODING 37
SWIDTH 672 0
DWIDTH 14 0
BBX 12 13 1 -1
BITMAP
0020
1840
6FC0
4C80
CD00
C900
CA60
75B0
0930
0A30
1230
2220
21C0
ENDCHAR
STARTCHAR 0026
ENCODING 38
SWIDTH 672 0
DWIDTH 14 0
BBX 12 13 1 0
BITMAP
1C00
2200
2200
2200
3C00
18F0
2C20
4640
C380
C180
C1C0
E2C0
3C70
ENDCHAR
STARTCHAR 0027
ENCODING 39
SWIDTH 144 0
DWIDTH 3 0
BBX 1 4 1 10
BITMAP
80
80
80
80
ENDCHAR
STARTCHAR 0028
ENCODING 40
SWIDTH 288 0
DWIDTH 6 0
BBX 4 16 1 -2
BITMAP
10
20
40
40
40
C0
C0
C0
C0
C0
40
40
40
20
10
10
ENDCHAR
STARTCHAR 0029
ENCODING 41
SWIDTH 288 0
DWIDTH 6 0
BBX 4 17 1 -3
BITMAP
80
40
40
20
30
10
10
10
10
10
10
10
30
20
40
40
80
ENDCHAR
STARTCHAR 002A
ENCODING 42
SWIDTH 384 0
DWIDTH 8 0
BBX 7 6 0 7
BITMAP
4C
28
1E
72
D0
10
ENDCHAR
STARTCHAR 002B
ENCODING 43
SWIDTH 576 0
DWIDTH 12 0
BBX 10 10 1 0
BITMAP
0800
0C00
0C00
0C00
0C00
FFC0
0C00
0C00
0C00
0C00
ENDCHAR
STARTCHAR 002C
ENCODING 44
SWIDTH 192 0
DWIDTH 4 0
BBX 2 5 1 -3
BITMAP
80
C0
40
80
80
ENDCHAR
STARTCHAR 002D
ENCODING 45
SWIDTH 240 0
DWIDTH 5 0
BBX 4 1 1 4
BITMAP
F0
ENDCHAR
STARTCHAR 002E
ENCODING 46
SWIDTH 192 0
DWIDTH 4 0
BBX 1 2 1 0
BITMAP
80
80
ENDCHAR
STARTCHAR 002F
ENCODING 47
SWIDTH 384 0
DWIDTH 8 0
BBX 8 19 0 -5
BITMAP
01
01
02
02
02
04
04
0C
08
08
10
10
10
20
20
60
40
40
80
ENDCHAR
STARTCHAR 0030
ENCODING 48
SWIDTH 480 0
DWIDTH 10 0
BBX 8 8 1 0
BITMAP
3C
63
C1
C1
C1
C1
63
3C
ENDCHAR
STARTCHAR 0031
ENCODING 49
SWIDTH 480 0
DWIDTH 10 0
BBX 4 8 4 0
BITMAP
F0
60
60
60
60
60
60
F0
ENDCHAR
STARTCHAR 0032
ENCODING 50
SWIDTH 480 0
DWIDTH 10 0
BBX 8 8 1 0
BITMAP
38
C4
06
04
08
10
21
FF
ENDCHAR
STARTCHAR 0033
ENCODING 51
SWIDTH 480 0
DWIDTH 10 0
BBX 7 13 1 -5
BITMAP
38
44
04
04
0C
30
3E
02
02
02
02
84
38
ENDCHAR
STARTCHAR 0034
ENCODING 52
SWIDTH 480 0
DWIDTH 10 0
BBX 8 12 1 -4
BITMAP
04
06
1E
26
46
46
86
FF
06
06
06
06
ENDCHAR
STARTCHAR 0035
ENCODING 53
SWIDTH 480 0
DWIDTH 10 0
BBX 7 12 2 -4
BITMAP
7E
80
80
80
F0
18
08
0C
08
18
30
C0
ENDCHAR
STARTCHAR 0036
ENCODING 54
SWIDTH 480 0
DWIDTH 10 0
BBX 8 14 1 0
BITMAP
06
08
10
20
60
40
F8
C6
C3
C3
C3
C3
42
3C
ENDCHAR
STARTCHAR 0037
ENCODING 55
SWIDTH 480 0
DWIDTH 10 0
BBX 8 12 2 -4
BITMAP
FF
82
02
04
04
08
10
10
20
20
40
40
ENDCHAR
STARTCHAR 0038
ENCODING 56
SWIDTH 480 0
DWIDTH 10 0
BBX 8 14 1 0
BITMAP
3C
42
C2
C2
C2
66
38
3C
C6
C2
C3
C2
46
3C
ENDCHAR
STARTCHAR 0039
ENCODING 57
SWIDTH 480 0
DWIDTH 10 0
BBX 8 13 1 -5
BITMAP
3C
42
C3
C3
C3
C3
43
3E
02
04
08
30
C0
ENDCHAR
STARTCHAR 003A
ENCODING 58
SWIDTH 192 0
DWIDTH 4 0
BBX 1 8 1 0
BITMAP
80
80
00
00
00
00
80
80
ENDCHAR
STARTCHAR 003B
ENCODING 59
SWIDTH 192 0
DWIDTH 4 0
BBX 2 10 1 -3
BITMAP
C0
C0
00
00
00
00
C0
40
40
80
ENDCHAR
STARTCHAR 003C
ENCODING 60
SWIDTH 528 0
DWIDTH 11 0
BBX 9 7 1 1
BITMAP
0180
0600
3800
C000
7000
0E00
0180
ENDCHAR
STARTCHAR 003D
ENCODING 61
SWIDTH 528 0
DWIDTH 11 0
BBX 9 4 1 2
BITMAP
FF80
0000
0000
FF80
ENDCHAR
STARTCHAR 003E
ENCODING 62
SWIDTH 528 0
DWIDTH 11 0
BBX 9 7 1 1
BITMAP
C000
3000
0E00
0180
0600
3800
C000
ENDCHAR
STARTCHAR 003F
ENCODING 63
SWIDTH 384 0
DWIDTH 8 0
BBX 7 14 1 0
BITMAP
80
F0
18
0C
04
06
04
0C
38
40
00
00
40
40
ENDCHAR
STARTCHAR 0040
ENCODING 64
SWIDTH 864 0
DWIDTH 18 0
BBX 15 14 1 -2
BITMAP
01F0
0E0C
1006
2002
41C2
C6C2
C882
C886
D90C
DB18
4DE0
6004
1018
0FE0
ENDCHAR
STARTCHAR 0041
ENCODING 65
SWIDTH 720 0
DWIDTH 15 0
BBX 13 14 1 0
BITMAP
0200
0300
0300
0580
0980
0980
10C0
10C0
1FC0
2060
2060
2060
4030
F078
ENDCHAR
STARTCHAR 0042
ENCODING 66
SWIDTH 576 0
DWIDTH 12 0
BBX 10 14 1 0
BITMAP
FF00
3080
30C0
30C0
30C0
3080
3100
3E00
31C0
3040
3040
3040
30C0
FF00
ENDCHAR
STARTCHAR 0043
ENCODING 67
SWIDTH 768 0
DWIDTH 16 0
BBX 13 14 1 0
BITMAP
0FC8
3038
6018
6018
C000
C000
C000
C000
C000
E008
6008
7008
3810
0FE0
ENDCHAR
STARTCHAR 0044
ENCODING 68
SWIDTH 768 0
DWIDTH 16 0
BBX 14 14 1 0
BITMAP
FF80
3060
3038
3018
300C
300C
300C
300C
300C
300C
3018
3038
3070
FFC0
ENDCHAR
STARTCHAR 0045
ENCODING 69
SWIDTH 624 0
DWIDTH 13 0
BBX 11 14 1 0
BITMAP
7FC0
3040
3040
3000
3000
3080
3180
3F80
3180
3000
3000
3020
3020
FFE0
ENDCHAR
STARTCHAR 0046
ENCODING 70
SWIDTH 528 0
DWIDTH 11 0
BBX 10 14 1 0
BITMAP
FF80
6040
6040
6000
6000
60C0
60C0
7FC0
60C0
6000
6000
6000
6000
F800
ENDCHAR
STARTCHAR 0047
ENCODING 71
SWIDTH 768 0
DWIDTH 16 0
BBX 14 14 1 0
BITMAP
0FC8
3038
6018
6018
C000
C000
C000
C000
C07C
E018
6018
7018
3818
0FE0
ENDCHAR
STARTCHAR 0048
ENCODING 72
SWIDTH 768 0
DWIDTH 16 0
BBX 15 14 0 0
BITMAP
783E
300C
300C
300C
300C
300C
300C
3FFC
300C
300C
300C
300C
300C
F83E
ENDCHAR
STARTCHAR 0049
ENCODING 73
SWIDTH 336 0
DWIDTH 7 0
BBX 5 14 1 0
BITMAP
F8
30
30
30
30
30
30
30
30
30
30
30
30
F8
ENDCHAR
STARTCHAR 004A
ENCODING 74
SWIDTH 336 0
DWIDTH 7 0
BBX 6 18 0 -4
BITMAP
7C
18
18
18
18
18
18
18
18
18
18
10
10
10
10
10
E0
80
ENDCHAR
STARTCHAR 004B
ENCODING 75
SWIDTH 624 0
DWIDTH 13 0
BBX 13 14 0 0
BITMAP
78F0
3040
3080
3100
3200
3400
3400
3E00
3700
3380
3180
30C0
3060
F8F8
ENDCHAR
STARTCHAR 004C
ENCODING 76
SWIDTH 576 0
DWIDTH 12 0
BBX 11 14 1 0
BITMAP
F800
3000
3000
3000
3000
3000
3000
3000
3000
3000
3000
3020
3020
FFE0
ENDCHAR
STARTCHAR 004D
ENCODING 77
SWIDTH 864 0
DWIDTH 18 0
BBX 18 14 0 0
BITMAP
780380
380700
2C0700
2C0F00
240B00
260B00
261300
231300
233300
21A300
21A300
20C300
20C300
F887C0
ENDCHAR
STARTCHAR 004E
ENCODING 78
SWIDTH 768 0
DWIDTH 16 0
BBX 15 14 0 0
BITMAP
781E
3804
2C04
2604
2304
2184
2184
20C4
2064
2034
2014
201C
200C
F804
ENDCHAR
STARTCHAR 004F
ENCODING 79
SWIDTH 720 0
DWIDTH 15 0
BBX 14 14 1 0
BITMAP
0FC0
1020
2010
4018
C008
C008
C008
C00C
C008
C008
4018
6010
3020
0FC0
ENDCHAR
STARTCHAR 0050
ENCODING 80
SWIDTH 576 0
DWIDTH 12 0
BBX 10 14 1 0
BITMAP
FF00
30C0
3040
3040
3040
3040
30C0
3F00
3000
3000
3000
3000
3000
F800
ENDCHAR
STARTCHAR 0051
ENCODING 81
SWIDTH 768 0
DWIDTH 16 0
BBX 14 17 1 -3
BITMAP
0FC0
3030
6018
4008
C00C
C00C
C00C
C00C
C00C
C008
6008
3010
1820
07C0
0400
3FC0
01FC
ENDCHAR
STARTCHAR 0052
ENCODING 82
SWIDTH 672 0
DWIDTH 14 0
BBX 13 14 1 0
BITMAP
FF80
30C0
3040
3040
3040
3040
3080
3F00
30C0
3040
3060
3060
3060
7878
ENDCHAR
STARTCHAR 0053
ENCODING 83
SWIDTH 528 0
DWIDTH 11 0
BBX 10 14 1 0
BITMAP
3EC0
41C0
C0C0
C080
C000
E000
7C00
1F00
0380
0180
8180
8180
8100
7E00
ENDCHAR
STARTCHAR 0054
ENCODING 84
SWIDTH 672 0
DWIDTH 14 0
BBX 14 14 0 0
BITMAP
7FFC
8304
8304
0300
0300
0300
0300
0300
0300
0300
0300
0300
0300
0F80
ENDCHAR
STARTCHAR 0055
ENCODING 85
SWIDTH 768 0
DWIDTH 16 0
BBX 14 14 1 0
BITMAP
F07C
6018
6018
6018
6018
6018
6018
6018
6018
6018
6018
6018
3038
1FD0
ENDCHAR
STARTCHAR 0056
ENCODING 86
SWIDTH 672 0
DWIDTH 14 0
BBX 13 14 1 0
BITMAP
F878
6010
6010
3020
3020
1840
1840
1880
0C80
0C80
0500
0700
0600
0200
ENDCHAR
STARTCHAR 0057
ENCODING 87
SWIDTH 1008 0
DWIDTH 21 0
BBX 20 14 0 0
BITMAP
F9F8F0
606020
202020
307040
307040
10B080
189080
189880
191900
0D0900
0E0E00
0E0E00
060C00
040400
ENDCHAR
STARTCHAR 0058
ENCODING 88
SWIDTH 624 0
DWIDTH 13 0
BBX 13 14 0 0
BITMAP
7CF0
3820
1840
0C80
0C80
0700
0600
0700
0700
0980
10C0
20C0
2060
F0F8
ENDCHAR
STARTCHAR 0059
ENCODING 89
SWIDTH 576 0
DWIDTH 12 0
BBX 11 14 0 0
BITMAP
F8E0
6040
3080
3080
1900
0900
0E00
0600
0600
0600
0600
0600
0600
1F00
ENDCHAR
STARTCHAR 005A
ENCODING 90
SWIDTH 624 0
DWIDTH 13 0
BBX 11 14 1 0
BITMAP
FFE0
81C0
8180
0380
0300
0600
0E00
0C00
1800
3800
3000
6020
E020
FFE0
ENDCHAR
STARTCHAR 005B
ENCODING 91
SWIDTH 336 0
DWIDTH 7 0
BBX 4 17 2 -3
BITMAP
F0
C0
C0
C0
C0
C0
C0
C0
C0
C0
C0
C0
C0
C0
C0
C0
F0
ENDCHAR
STARTCHAR 005C
ENCODING 92
SWIDTH 384 0
DWIDTH 8 0
BBX 8 19 0 -5
BITMAP
80
40
40
40
20
20
10
10
10
08
08
0C
04
04
02
02
02
01
01
ENDCHAR
STARTCHAR 005D
ENCODING 93
SWIDTH 336 0
DWIDTH 7 0
BBX 5 17 1 -3
BITMAP
F8
18
18
18
18
18
18
18
18
18
18
18
18
18
18
18
F8
ENDCHAR
STARTCHAR 005E
ENCODING 94
SWIDTH 384 0
DWIDTH 8 0
BBX 6 6 1 7
BITMAP
10
30
28
48
44
84
ENDCHAR
STARTCHAR 005F
ENCODING 95
SWIDTH 432 0
DWIDTH 9 0
BBX 7 1 1 -1
BITMAP
FE
ENDCHAR
STARTCHAR 0060
ENCODING 96
SWIDTH 384 0
DWIDTH 8 0
BBX 2 3 2 10
BITMAP
C0
40
40
ENDCHAR
STARTCHAR 0061
ENCODING 97
SWIDTH 432 0
DWIDTH 9 0
BBX 6 8 1 0
BITMAP
78
CC
8C
0C
7C
CC
CC
F4
ENDCHAR
STARTCHAR 0062
ENCODING 98
SWIDTH 480 0
DWIDTH 10 0
BBX 8 14 1 0
BITMAP
C0
60
60
60
60
60
7E
63
61
61
61
61
63
7C
ENDCHAR
STARTCHAR 0063
ENCODING 99
SWIDTH 432 0
DWIDTH 9 0
BBX 7 8 1 0
BITMAP
3C
42
C0
C0
C0
C0
60
3E
ENDCHAR
STARTCHAR 0064
ENCODING 100
SWIDTH 528 0
DWIDTH 11 0
BBX 9 14 1 0
BITMAP
0700
0300
0300
0300
0300
0300
3F00
4300
C300
C300
C300
C300
4300
3D80
ENDCHAR
STARTCHAR 0065
ENCODING 101
SWIDTH 432 0
DWIDTH 9 0
BBX 7 8 1 0
BITMAP
3C
42
FE
C0
C0
C0
62
3C
ENDCHAR
STARTCHAR 0066
ENCODING 102
SWIDTH 336 0
DWIDTH 7 0
BBX 6 14 1 0
BITMAP
3C
64
60
60
60
60
F8
60
60
60
60
60
60
F0
ENDCHAR
STARTCHAR 0067
ENCODING 103
SWIDTH 480 0
DWIDTH 10 0
BBX 9 14 1 -6
BITMAP
3C00
4300
4200
4200
4200
2400
1800
E000
7E00
2700
C180
C100
C300
7C00
ENDCHAR
STARTCHAR 0068
ENCODING 104
SWIDTH 528 0
DWIDTH 11 0
BBX 9 14 1 0
BITMAP
E000
6000
6000
6000
6000
6000
7E00
6300
6300
6300
6300
6300
6300
F780
ENDCHAR
STARTCHAR 0069
ENCODING 105
SWIDTH 288 0
DWIDTH 6 0
BBX 4 12 1 0
BITMAP
60
60
00
00
E0
60
60
60
60
60
60
F0
ENDCHAR
STARTCHAR 006A
ENCODING 106
SWIDTH 288 0
DWIDTH 6 0
BBX 4 18 1 -6
BITMAP
60
60
00
00
F0
30
30
30
30
30
30
30
20
20
20
20
60
80
ENDCHAR
STARTCHAR 006B
ENCODING 107
SWIDTH 480 0
DWIDTH 10 0
BBX 9 14 0 0
BITMAP
F000
3000
3000
3000
3000
3000
3300
3200
3400
3800
3400
3600
3300
7380
ENDCHAR
STARTCHAR 006C
ENCODING 108
SWIDTH 240 0
DWIDTH 5 0
BBX 5 14 0 0
BITMAP
E0
30
30
30
30
30
30
30
30
30
30
30
30
78
ENDCHAR
STARTCHAR 006D
ENCODING 109
SWIDTH 720 0
DWIDTH 15 0
BBX 13 8 1 0
BITMAP
CEF0
7310
6210
6318
6318
6318
6318
E738
ENDCHAR
STARTCHAR 006E
ENCODING 110
SWIDTH 528 0
DWIDTH 11 0
BBX 9 8 1 0
BITMAP
CE00
7300
6300
6300
6300
6300
6300
F780
ENDCHAR
STARTCHAR 006F
ENCODING 111
SWIDTH 480 0
DWIDTH 10 0
BBX 8 8 1 0
BITMAP
3C
42
C3
C3
C3
C3
42
3C
ENDCHAR
STARTCHAR 0070
ENCODING 112
SWIDTH 480 0
DWIDTH 10 0
BBX 9 14 0 -6
BITMAP
EF00
3180
3080
3080
3080
3080
3180
3A00
3400
3000
3000
3000
3000
7800
ENDCHAR
STARTCHAR 0071
ENCODING 113
SWIDTH 528 0
DWIDTH 11 0
BBX 9 14 1 -6
BITMAP
3F00
4300
C300
C300
C300
C300
6300
3F00
0300
0300
0300
0300
0300
0380
ENDCHAR
STARTCHAR 0072
ENCODING 114
SWIDTH 336 0
DWIDTH 7 0
BBX 6 8 0 0
BITMAP
FC
30
30
30
30
30
30
78
ENDCHAR
STARTCHAR 0073
ENCODING 115
SWIDTH 336 0
DWIDTH 7 0
BBX 5 8 1 0
BITMAP
78
C8
C0
E0
38
08
88
F0
ENDCHAR
STARTCHAR 0074
ENCODING 116
SWIDTH 336 0
DWIDTH 7 0
BBX 5 10 1 0
BITMAP
20
60
F8
60
60
60
60
60
60
78
ENDCHAR
STARTCHAR 0075
ENCODING 117
SWIDTH 528 0
DWIDTH 11 0
BBX 8 8 2 0
BITMAP
C6
C6
C6
C6
C6
C6
C6
7B
ENDCHAR
STARTCHAR 0076
ENCODING 118
SWIDTH 480 0
DWIDTH 10 0
BBX 8 8 1 0
BITMAP
E3
42
62
24
24
38
18
10
ENDCHAR
STARTCHAR 0077
ENCODING 119
SWIDTH 720 0
DWIDTH 15 0
BBX 13 8 1 0
BITMAP
E738
4310
6510
6520
29A0
38C0
18C0
1080
ENDCHAR
STARTCHAR 0078
ENCODING 120
SWIDTH 480 0
DWIDTH 10 0
BBX 8 8 1 0
BITMAP
E3
22
34
18
18
2C
46
C7
ENDCHAR
STARTCHAR 0079
ENCODING 121
SWIDTH 480 0
DWIDTH 10 0
BBX 9 14 0 -6
BITMAP
F380
6100
3100
3200
1200
1C00
0C00
0C00
0800
0800
0800
1000
6000
4000
ENDCHAR
STARTCHAR 007A
ENCODING 122
SWIDTH 432 0
DWIDTH 9 0
BBX 7 8 1 0
BITMAP
FE
8C
08
18
30
20
62
FE
ENDCHAR
STARTCHAR 007B
ENCODING 123
SWIDTH 288 0
DWIDTH 6 0
BBX 6 17 0 -3
BITMAP
18
30
30
30
30
30
20
20
C0
20
20
30
30
30
30
30
1C
ENDCHAR
STARTCHAR 007C
ENCODING 124
SWIDTH 288 0
DWIDTH 6 0
BBX 2 19 2 -3
BITMAP
C0
C0
C0
C0
C0
C0
C0
C0
C0
C0
C0
C0
C0
C0
C0
C0
C0
C0
C0
ENDCHAR
STARTCHAR 007D
ENCODING 125
SWIDTH 336 0
DWIDTH 7 0
BBX 5 17 1 -3
BITMAP
E0
20
20
30
30
30
30
30
18
30
30
30
30
30
20
20
C0
ENDCHAR
STARTCHAR 007E
ENCODING 126
SWIDTH 816 0
DWIDTH 17 0
BBX 14 4 1 2
BITMAP
3C00
4704
8188
8070
ENDCHAR
STARTCHAR 00A0
ENCODING 160
SWIDTH 192 0
DWIDTH 4 0
BBX 0 0 0 0
BITMAP
ENDCHAR
STARTCHAR 00A1
ENCODING 161
SWIDTH 288 0
DWIDTH 6 0
BBX 2 14 2 0
BITMAP
C0
C0
00
00
C0
C0
C0
C0
C0
C0
C0
C0
C0
C0
ENDCHAR
STARTCHAR 00A2
ENCODING 162
SWIDTH 432 0
DWIDTH 9 0
BBX 7 13 1 -3
BITMAP
08
08
3C
52
D0
D0
D0
D0
70
3E
10
10
10
ENDCHAR
STARTCHAR 00A3
ENCODING 163
SWIDTH 576 0
DWIDTH 12 0
BBX 10 15 1 -2
BITMAP
0E00
1300
3000
3000
3000
3000
3000
3000
FC00
2000
2000
20C0
20C0
3F80
4000
ENDCHAR
STARTCHAR 00A4
ENCODING 164
SWIDTH 480 0
DWIDTH 10 0
BBX 9 9 0 0
BITMAP
C080
7D00
2300
6100
6100
6100
2300
7D00
C080
ENDCHAR
STARTCHAR 00A5
ENCODING 165
SWIDTH 576 0
DWIDTH 12 0
BBX 11 14 0 0
BITMAP
F8E0
6040
3080
1080
1900
0A00
3F80
0600
0600
7FC0
0600
0600
0600
1F00
ENDCHAR
STARTCHAR 00A6
ENCODING 166
SWIDTH 288 0
DWIDTH 6 0
BBX 2 19 2 -3
BITMAP
C0
C0
C0
C0
C0
C0
C0
80
00
00
80
C0
C0
C0
C0
C0
C0
C0
C0
ENDCHAR
STARTCHAR 00A7
ENCODING 167
SWIDTH 384 0
DWIDTH 8 0
BBX 6 18 1 -4
BITMAP
7C
C0
C0
C0
60
F0
D8
D8
CC
4C
64
24
38
18
0C
0C
0C
F8
ENDCHAR
STARTCHAR 00A8
ENCODING 168
SWIDTH 384 0
DWIDTH 8 0
BBX 5 2 1 10
BITMAP
D8
D8
ENDCHAR
STARTCHAR 00A9
ENCODING 169
SWIDTH 816 0
DWIDTH 17 0
BBX 15 15 1 -4
BITMAP
07C0
1830
3318
6CEC
4864
D866
D806
D806
D806
C806
4C04
63EC
2018
1830
07C0
ENDCHAR
STARTCHAR 00AA
ENCODING 170
SWIDTH 336 0
DWIDTH 7 0
BBX 6 7 1 7
BITMAP
70
88
08
38
C8
88
FC
ENDCHAR
STARTCHAR 00AB
ENCODING 171
SWIDTH 432 0
DWIDTH 9 0
BBX 5 4 2 2
BITMAP
48
90
90
48
ENDCHAR
STARTCHAR 00AC
ENCODING 172
SWIDTH 528 0
DWIDTH 11 0
BBX 11 4 0 1
BITMAP
FFE0
0060
0060
0060
ENDCHAR
STARTCHAR 00AD
ENCODING 173
SWIDTH 240 0
DWIDTH 5 0
BBX 4 1 1 4
BITMAP
F0
ENDCHAR
STARTCHAR 00AE
ENCODING 174
SWIDTH 576 0
DWIDTH 12 0
BBX 10 11 1 4
BITMAP
1E00
2100
7C80
DAC0
DAC0
DCC0
DBC0
DBC0
5B80
2100
0C00
ENDCHAR
STARTCHAR 00AF
ENCODING 175
SWIDTH 384 0
DWIDTH 8 0
BBX 4 1 2 10
BITMAP
F0
ENDCHAR
STARTCHAR 00B0
ENCODING 176
SWIDTH 288 0
DWIDTH 6 0
BBX 4 4 1 9
BITMAP
60
F0
F0
60
ENDCHAR
STARTCHAR 00B1
ENCODING 177
SWIDTH 576 0
DWIDTH 12 0
BBX 10 9 1 1
BITMAP
0C00
0C00
0C00
FFC0
0C00
0C00
0C00
0800
FF80
ENDCHAR
STARTCHAR 00B2
ENCODING 178
SWIDTH 336 0
DWIDTH 7 0
BBX 6 9 1 7
BITMAP
70
98
08
08
10
10
20
44
F8
ENDCHAR
STARTCHAR 00B3
ENCODING 179
SWIDTH 384 0
DWIDTH 8 0
BBX 6 9 1 7
BITMAP
70
08
08
10
78
04
04
04
F8
ENDCHAR
STARTCHAR 00B4
ENCODING 180
SWIDTH 384 0
DWIDTH 8 0
BBX 2 3 4 10
BITMAP
40
80
80
ENDCHAR
STARTCHAR 00B5
ENCODING 181
SWIDTH 528 0
DWIDTH 11 0
BBX 9 11 1 -4
BITMAP
3100
2100
2100
2300
6300
6F00
6B80
F300
C000
C000
C000
ENDCHAR
STARTCHAR 00B6
ENCODING 182
SWIDTH 480 0
DWIDTH 10 0
BBX 8 18 1 -4
BITMAP
1B
7A
7A
FA
FA
FA
FA
7A
7A
1A
02
02
02
02
02
02
02
06
ENDCHAR
STARTCHAR 00B7
ENCODING 183
SWIDTH 192 0
DWIDTH 4 0
BBX 2 2 1 6
BITMAP
C0
C0
ENDCHAR
STARTCHAR 00B8
ENCODING 184
SWIDTH 384 0
DWIDTH 8 0
BBX 3 4 3 -4
BITMAP
E0
20
20
C0
ENDCHAR
STARTCHAR 00B9
ENCODING 185
SWIDTH 384 0
DWIDTH 8 0
BBX 4 9 2 7
BITMAP
60
20
20
20
20
20
20
20
F0
ENDCHAR
STARTCHAR 00BA
ENCODING 186
SWIDTH 384 0
DWIDTH 8 0
BBX 6 7 1 7
BITMAP
30
C8
84
84
8C
8C
78
ENDCHAR
STARTCHAR 00BB
ENCODING 187
SWIDTH 432 0
DWIDTH 9 0
BBX 5 5 2 2
BITMAP
90
48
48
90
A0
ENDCHAR
STARTCHAR 00BC
ENCODING 188
SWIDTH 816 0
DWIDTH 17 0
BBX 14 14 2 0
BITMAP
F010
3020
3020
3040
3040
3088
3118
3138
FA58
0498
04FC
0818
1018
1018
ENDCHAR
STARTCHAR 00BD
ENCODING 189
SWIDTH 864 0
DWIDTH 18 0
BBX 16 14 2 -1
BITMAP
F010
3020
3020
3040
3080
309C
3166
FA06
0206
0404
0408
0811
103E
1000
ENDCHAR
STARTCHAR 00BE
ENCODING 190
SWIDTH 768 0
DWIDTH 16 0
BBX 14 14 2 0
BITMAP
6010
9020
1040
3040
F080
1900
1938
1258
E298
0498
09FC
0818
1018
2018
ENDCHAR
STARTCHAR 00BF
ENCODING 191
SWIDTH 384 0
DWIDTH 8 0
BBX 6 14 1 0
BITMAP
10
10
00
10
10
10
70
E0
C0
C0
C0
60
38
04
ENDCHAR
STARTCHAR 00C0
ENCODING 192
SWIDTH 720 0
DWIDTH 15 0
BBX 13 17 1 0
BITMAP
0400
0200
0000
0200
0300
0300
0580
0980
0980
10C0
10C0
1FC0
2060
2060
2060
4030
F078
ENDCHAR
STARTCHAR 00C1
ENCODING 193
SWIDTH 720 0
DWIDTH 15 0
BBX 13 17 1 0
BITMAP
0080
0100
0000
0200
0300
0300
0580
0980
0980
10C0
10C0
1FC0
2060
2060
2060
4030
F078
ENDCHAR
STARTCHAR 00C2
ENCODING 194
SWIDTH 720 0
DWIDTH 15 0
BBX 13 17 1 0
BITMAP
0300
0480
0000
0200
0300
0300
0580
0980
0980
10C0
10C0
1FC0
2060
2060
2060
4030
F078
ENDCHAR
STARTCHAR 00C3
ENCODING 195
SWIDTH 720 0
DWIDTH 15 0
BBX 13 17 1 0
BITMAP
0680
0900
0000
0200
0300
0300
0580
0980
0980
10C0
10C0
1FC0
2060
2060
2060
4030
F078
ENDCHAR
STARTCHAR 00C4
ENCODING 196
SWIDTH 720 0
DWIDTH 15 0
BBX 14 17 0 0
BITMAP
06C0
06C0
0000
0100
0180
0380
0280
04C0
04C0
0840
0860
0FE0
1030
1030
2030
2018
F03C
ENDCHAR
STARTCHAR 00C5
ENCODING 197
SWIDTH 672 0
DWIDTH 14 0
BBX 14 18 0 0
BITMAP
0180
0380
0380
0180
0100
0100
0380
0280
0480
04C0
0840
0840
0FE0
1060
1030
2030
2030
F07C
ENDCHAR
STARTCHAR 00C6
ENCODING 198
SWIDTH 960 0
DWIDTH 20 0
BBX 19 14 0 0
BITMAP
00FFC0
00B040
00B040
013000
023000
023080
043180
043F80
0FF180
083000
103000
203020
203020
F0FFE0
ENDCHAR
STARTCHAR 00C7
ENCODING 199
SWIDTH 768 0
DWIDTH 16 0
BBX 13 19 1 -5
BITMAP
0FC8
3038
6018
6018
C000
C000
C000
C000
C000
E008
6008
7008
3810
0FE0
0200
0380
0080
0080
0300
ENDCHAR
STARTCHAR 00C8
ENCODING 200
SWIDTH 624 0
DWIDTH 13 0
BBX 11 17 1 0
BITMAP
1800
0800
0000
7FC0
3040
3040
3000
3000
3080
3180
3F80
3180
3000
3000
3020
3020
FFE0
ENDCHAR
STARTCHAR 00C9
ENCODING 201
SWIDTH 624 0
DWIDTH 13 0
BBX 11 17 1 0
BITMAP
0300
0400
0000
7FC0
3040
3040
3000
3000
3080
3180
3F80
3180
3000
3000
3020
3020
FFE0
ENDCHAR
STARTCHAR 00CA
ENCODING 202
SWIDTH 624 0
DWIDTH 13 0
BBX 11 17 1 0
BITMAP
0400
0A00
0000
7FC0
3040
3040
3000
3000
3080
3180
3F80
3180
3000
3000
3020
3020
FFE0
ENDCHAR
STARTCHAR 00CB
ENCODING 203
SWIDTH 624 0
DWIDTH 13 0
BBX 11 17 1 0
BITMAP
1980
1980
0000
7FC0
3040
3040
3000
3000
3080
3180
3F80
3180
3000
3000
3020
3020
FFE0
ENDCHAR
STARTCHAR 00CC
ENCODING 204
SWIDTH 336 0
DWIDTH 7 0
BBX 5 17 1 0
BITMAP
40
20
00
F8
30
30
30
30
30
30
30
30
30
30
30
30
F8
ENDCHAR
STARTCHAR 00CD
ENCODING 205
SWIDTH 336 0
DWIDTH 7 0
BBX 5 17 1 0
BITMAP
08
10
00
F8
30
30
30
30
30
30
30
30
30
30
30
30
F8
ENDCHAR
STARTCHAR 00CE
ENCODING 206
SWIDTH 336 0
DWIDTH 7 0
BBX 5 17 1 0
BITMAP
30
48
00
F8
30
30
30
30
30
30
30
30
30
30
30
30
F8
ENDCHAR
STARTCHAR 00CF
ENCODING 207
SWIDTH 336 0
DWIDTH 7 0
BBX 5 17 1 0
BITMAP
D8
D8
00
F8
30
30
30
30
30
30
30
30
30
30
30
30
F8
ENDCHAR
STARTCHAR 00D0
ENCODING 208
SWIDTH 768 0
DWIDTH 16 0
BBX 14 14 1 0
BITMAP
FF80
3060
3038
3018
300C
300C
300C
FF0C
300C
300C
3018
3038
3070
FFC0
ENDCHAR
STARTCHAR 00D1
ENCODING 209
SWIDTH 768 0
DWIDTH 16 0
BBX 15 17 0 0
BITMAP
0100
02C0
0000
781E
3804
2C04
2604
2304
2184
2184
20C4
2064
2034
2014
201C
200C
F804
ENDCHAR
STARTCHAR 00D2
ENCODING 210
SWIDTH 720 0
DWIDTH 15 0
BBX 14 17 1 1
BITMAP
0400
0200
0000
0FC0
1020
2010
4018
C008
C008
C008
C00C
C008
C008
4018
6010
3020
0FC0
ENDCHAR
STARTCHAR 00D3
ENCODING 211
SWIDTH 720 0
DWIDTH 15 0
BBX 14 17 1 1
BITMAP
0180
0100
0000
0FC0
1020
2010
4018
C008
C008
C008
C00C
C008
C008
4018
6010
3020
0FC0
ENDCHAR
STARTCHAR 00D4
ENCODING 212
SWIDTH 720 0
DWIDTH 15 0
BBX 14 17 1 0
BITMAP
0300
0480
0000
0FC0
1020
2010
4018
C008
C008
C008
C00C
C008
C008
4018
6010
3020
0FC0
ENDCHAR
STARTCHAR 00D5
ENCODING 213
SWIDTH 720 0
DWIDTH 15 0
BBX 14 17 1 0
BITMAP
0680
0900
0000
0FC0
1020
2010
4018
C008
C008
C008
C00C
C008
C008
4018
6010
3020
0FC0
ENDCHAR
STARTCHAR 00D6
ENCODING 214
SWIDTH 720 0
DWIDTH 15 0
BBX 14 17 1 0
BITMAP
0C40
0C40
0000
0FC0
1020
2010
4018
C008
C008
C008
C00C
C008
C008
4018
6010
3020
0FC0
ENDCHAR
STARTCHAR 00D7
ENCODING 215
SWIDTH 528 0
DWIDTH 11 0
BBX 7 7 2 1
BITMAP
82
44
38
10
28
44
82
ENDCHAR
STARTCHAR 00D8
ENCODING 216
SWIDTH 720 0
DWIDTH 15 0
BBX 14 14 1 0
BITMAP
0FE0
1020
2050
4098
C088
C108
C108
C20C
C408
C408
4818
7810
3020
2FC0
ENDCHAR
STARTCHAR 00D9
ENCODING 217
SWIDTH 768 0
DWIDTH 16 0
BBX 14 17 1 1
BITMAP
0400
0200
0000
F07C
6018
6018
6018
6018
6018
6018
6018
6018
6018
6018
6018
3038
1FD0
ENDCHAR
STARTCHAR 00DA
ENCODING 218
SWIDTH 768 0
DWIDTH 16 0
BBX 14 17 1 1
BITMAP
0180
0100
0000
F07C
6018
6018
6018
6018
6018
6018
6018
6018
6018
6018
6018
3038
1FD0
ENDCHAR
STARTCHAR 00DB
ENCODING 219
SWIDTH 768 0
DWIDTH 16 0
BBX 14 17 1 0
BITMAP
0300
0480
0000
F07C
6018
6018
6018
6018
6018
6018
6018
6018
6018
6018
6018
3038
1FD0
ENDCHAR
STARTCHAR 00DC
ENCODING 220
SWIDTH 768 0
DWIDTH 16 0
BBX 14 17 1 0
BITMAP
0C80
0C80
0000
F07C
6018
6018
6018
6018
6018
6018
6018
6018
6018
6018
6018
3038
1FD0
ENDCHAR
STARTCHAR 00DD
ENCODING 221
SWIDTH 576 0
DWIDTH 12 0
BBX 11 17 0 0
BITMAP
0100
0200
0000
F8E0
6040
3080
3080
1900
0900
0E00
0600
0600
0600
0600
0600
0600
1F00
ENDCHAR
STARTCHAR 00DE
ENCODING 222
SWIDTH 576 0
DWIDTH 12 0
BBX 10 14 1 0
BITMAP
F800
3000
3000
3F00
3080
3040
3040
3040
3040
30C0
3F00
3000
3000
F800
ENDCHAR
STARTCHAR 00DF
ENCODING 223
SWIDTH 480 0
DWIDTH 10 0
BBX 9 14 1 0
BITMAP
1C00
2200
6200
6200
6200
6400
6C00
6200
6100
6100
6180
6100
7900
EE00
ENDCHAR
STARTCHAR 00E0
ENCODING 224
SWIDTH 432 0
DWIDTH 9 0
BBX 6 12 1 1
BITMAP
60
20
00
00
78
CC
8C
0C
7C
CC
CC
F4
ENDCHAR
STARTCHAR 00E1
ENCODING 225
SWIDTH 432 0
DWIDTH 9 0
BBX 6 12 1 1
BITMAP
08
10
00
00
78
CC
8C
0C
7C
CC
CC
F4
ENDCHAR
STARTCHAR 00E2
ENCODING 226
SWIDTH 432 0
DWIDTH 9 0
BBX 6 12 1 1
BITMAP
30
28
00
00
78
CC
8C
0C
7C
CC
CC
F4
ENDCHAR
STARTCHAR 00E3
ENCODING 227
SWIDTH 432 0
DWIDTH 9 0
BBX 6 12 1 0
BITMAP
20
58
00
00
78
CC
8C
0C
7C
CC
CC
F4
ENDCHAR
STARTCHAR 00E4
ENCODING 228
SWIDTH 432 0
DWIDTH 9 0
BBX 7 12 1 0
BITMAP
6C
6C
00
00
78
CC
84
0C
74
C4
C4
FE
ENDCHAR
STARTCHAR 00E5
ENCODING 229
SWIDTH 432 0
DWIDTH 9 0
BBX 7 13 1 0
BITMAP
38
6C
38
00
00
78
CC
8C
0C
7C
CC
CC
F6
ENDCHAR
STARTCHAR 00E6
ENCODING 230
SWIDTH 672 0
DWIDTH 14 0
BBX 12 8 1 0
BITMAP
79E0
CE30
0FF0
1C00
6C00
CC00
CE10
F3E0
ENDCHAR
STARTCHAR 00E7
ENCODING 231
SWIDTH 432 0
DWIDTH 9 0
BBX 7 13 1 -5
BITMAP
3C
42
C0
C0
C0
C0
60
3E
10
1C
04
04
18
ENDCHAR
STARTCHAR 00E8
ENCODING 232
SWIDTH 432 0
DWIDTH 9 0
BBX 7 12 1 1
BITMAP
30
10
00
00
3C
42
FE
C0
C0
C0
62
3C
ENDCHAR
STARTCHAR 00E9
ENCODING 233
SWIDTH 432 0
DWIDTH 9 0
BBX 7 12 1 1
BITMAP
04
08
00
00
3C
42
FE
C0
C0
C0
62
3C
ENDCHAR
STARTCHAR 00EA
ENCODING 234
SWIDTH 432 0
DWIDTH 9 0
BBX 7 13 1 0
BITMAP
08
18
24
00
00
3C
42
FE
C0
C0
C0
62
3C
ENDCHAR
STARTCHAR 00EB
ENCODING 235
SWIDTH 432 0
DWIDTH 9 0
BBX 7 12 1 0
BITMAP
66
66
00
00
3C
42
FE
C0
C0
C0
62
3C
ENDCHAR
STARTCHAR 00EC
ENCODING 236
SWIDTH 240 0
DWIDTH 5 0
BBX 5 12 0 1
BITMAP
C0
40
20
00
70
30
30
30
30
30
30
78
ENDCHAR
STARTCHAR 00ED
ENCODING 237
SWIDTH 240 0
DWIDTH 5 0
BBX 4 12 1 1
BITMAP
20
20
40
00
E0
60
60
60
60
60
60
F0
ENDCHAR
STARTCHAR 00EE
ENCODING 238
SWIDTH 240 0
DWIDTH 5 0
BBX 5 12 0 0
BITMAP
20
50
88
00
70
30
30
30
30
30
30
78
ENDCHAR
STARTCHAR 00EF
ENCODING 239
SWIDTH 288 0
DWIDTH 6 0
BBX 5 12 0 0
BITMAP
D8
D8
00
00
70
30
30
30
30
30
30
78
ENDCHAR
STARTCHAR 00F0
ENCODING 240
SWIDTH 480 0
DWIDTH 10 0
BBX 8 14 1 0
BITMAP
20
10
0E
7C
04
06
3E
43
C3
C3
C3
C3
42
3C
ENDCHAR
STARTCHAR 00F1
ENCODING 241
SWIDTH 528 0
DWIDTH 11 0
BBX 9 12 1 0
BITMAP
1A00
2C00
0000
0000
CE00
7300
6300
6300
6300
6300
6300
F780
ENDCHAR
STARTCHAR 00F2
ENCODING 242
SWIDTH 480 0
DWIDTH 10 0
BBX 8 12 1 1
BITMAP
30
10
00
00
3C
42
C3
C3
C3
C3
42
3C
ENDCHAR
STARTCHAR 00F3
ENCODING 243
SWIDTH 480 0
DWIDTH 10 0
BBX 8 12 1 1
BITMAP
04
08
00
00
3C
42
C3
C3
C3
C3
42
3C
ENDCHAR
STARTCHAR 00F4
ENCODING 244
SWIDTH 480 0
DWIDTH 10 0
BBX 8 12 1 1
BITMAP
18
24
00
00
3C
42
C3
C3
C3
C3
42
3C
ENDCHAR
STARTCHAR 00F5
ENCODING 245
SWIDTH 480 0
DWIDTH 10 0
BBX 8 12 1 0
BITMAP
10
6C
00
00
3C
42
C3
C3
C3
C3
42
3C
ENDCHAR
STARTCHAR 00F6
ENCODING 246
SWIDTH 480 0
DWIDTH 10 0
BBX 8 12 1 0
BITMAP
36
36
00
00
3C
42
C3
C3
C3
C3
42
3C
ENDCHAR
STARTCHAR 00F7
ENCODING 247
SWIDTH 480 0
DWIDTH 10 0
BBX 10 6 0 1
BITMAP
0800
0800
FFC0
0000
0800
0800
ENDCHAR
STARTCHAR 00F8
ENCODING 248
SWIDTH 480 0
DWIDTH 10 0
BBX 8 9 1 -1
BITMAP
02
3C
46
CB
CB
D3
E3
62
7C
ENDCHAR
STARTCHAR 00F9
ENCODING 249
SWIDTH 528 0
DWIDTH 11 0
BBX 8 12 2 1
BITMAP
60
20
10
00
C6
C6
C6
C6
C6
C6
C6
7B
ENDCHAR
STARTCHAR 00FA
ENCODING 250
SWIDTH 528 0
DWIDTH 11 0
BBX 8 12 2 1
BITMAP
08
10
00
00
C6
C6
C6
C6
C6
C6
C6
7B
ENDCHAR
STARTCHAR 00FB
ENCODING 251
SWIDTH 528 0
DWIDTH 11 0
BBX 8 13 2 0
BITMAP
10
30
28
00
00
C6
C6
C6
C6
C6
C6
C6
7B
ENDCHAR
STARTCHAR 00FC
ENCODING 252
SWIDTH 528 0
DWIDTH 11 0
BBX 8 12 2 0
BITMAP
6C
6C
00
00
C6
C6
C6
C6
C6
C6
C6
7B
ENDCHAR
STARTCHAR 00FD
ENCODING 253
SWIDTH 480 0
DWIDTH 10 0
BBX 9 19 0 -6
BITMAP
0200
0200
0400
0400
0000
F380
6100
3100
3200
1200
1C00
0C00
0C00
0800
0800
0800
1000
6000
4000
ENDCHAR
STARTCHAR 00FE
ENCODING 254
SWIDTH 480 0
DWIDTH 10 0
BBX 8 19 1 -6
BITMAP
E0
60
60
60
60
7E
63
61
61
61
61
63
74
68
60
60
60
60
F0
ENDCHAR
STARTCHAR 00FF
ENCODING 255
SWIDTH 432 0
DWIDTH 9 0
BBX 8 18 0 -6
BITMAP
36
36
00
00
F3
62
22
32
34
14
18
08
08
10
10
10
60
C0
ENDCHAR
STARTCHAR 0100
ENCODING 256
SWIDTH 720 0
DWIDTH 15 0
BBX 13 17 1 0
BITMAP
0780
0000
0000
0200
0300
0300
0580
0980
0980
10C0
10C0
1FC0
2060
2060
2060
4030
F078
ENDCHAR
STARTCHAR 0101
ENCODING 257
SWIDTH 432 0
DWIDTH 9 0
BBX 6 12 1 0
BITMAP
78
00
00
00
78
CC
8C
0C
7C
CC
CC
F4
ENDCHAR
STARTCHAR 0102
ENCODING 258
SWIDTH 720 0
DWIDTH 15 0
BBX 14 17 1 0
BITMAP
0480
0780
0000
0100
0300
0380
0580
0980
09C0
10C0
10C0
1FE0
1060
2020
2030
4030
F07C
ENDCHAR
STARTCHAR 0103
ENCODING 259
SWIDTH 432 0
DWIDTH 9 0
BBX 6 12 1 0
BITMAP
40
78
00
00
78
CC
8C
0C
7C
CC
CC
F4
ENDCHAR
STARTCHAR 0104
ENCODING 260
SWIDTH 720 0
DWIDTH 15 0
BBX 13 20 1 -6
BITMAP
0200
0300
0300
0580
0980
0980
10C0
10C0
1FC0
2060
2060
2060
4030
F078
0020
0040
00C0
00C0
00C8
0070
ENDCHAR
STARTCHAR 0105
ENCODING 261
SWIDTH 432 0
DWIDTH 9 0
BBX 7 14 1 -6
BITMAP
78
CC
8C
0C
7C
CC
CC
F6
04
08
10
10
10
1E
ENDCHAR
STARTCHAR 0106
ENCODING 262
SWIDTH 768 0
DWIDTH 16 0
BBX 13 17 1 1
BITMAP
0080
0100
0000
0FC8
3038
6018
6018
C000
C000
C000
C000
C000
E008
6008
7008
3810
0FE0
ENDCHAR
STARTCHAR 0107
ENCODING 263
SWIDTH 432 0
DWIDTH 9 0
BBX 7 12 1 1
BITMAP
04
08
00
00
3C
42
C0
C0
C0
C0
60
3E
ENDCHAR
STARTCHAR 0108
ENCODING 264
SWIDTH 768 0
DWIDTH 16 0
BBX 13 17 1 1
BITMAP
0300
0480
0000
0FC8
3038
6018
6018
C000
C000
C000
C000
C000
E008
6008
7008
3810
0FE0
ENDCHAR
STARTCHAR 0109
ENCODING 265
SWIDTH 432 0
DWIDTH 9 0
BBX 7 12 1 1
BITMAP
18
24
00
00
3C
42
C0
C0
C0
C0
60
3E
ENDCHAR
STARTCHAR 010A
ENCODING 266
SWIDTH 768 0
DWIDTH 16 0
BBX 13 17 1 0
BITMAP
0300
0300
0000
0FC8
3038
6018
6018
C000
C000
C000
C000
C000
E008
6008
7008
3810
0FE0
ENDCHAR
STARTCHAR 010B
ENCODING 267
SWIDTH 432 0
DWIDTH 9 0
BBX 7 12 1 0
BITMAP
18
18
00
00
3C
42
C0
C0
C0
C0
60
3E
ENDCHAR
STARTCHAR 010C
ENCODING 268
SWIDTH 768 0
DWIDTH 16 0
BBX 13 17 1 1
BITMAP
0780
0300
0000
0FC8
3038
6018
6018
C000
C000
C000
C000
C000
E008
6008
7008
3810
0FE0
ENDCHAR
STARTCHAR 010D
ENCODING 269
SWIDTH 432 0
DWIDTH 9 0
BBX 7 12 1 1
BITMAP
24
18
00
00
3C
42
C0
C0
C0
C0
60
3E
ENDCHAR
STARTCHAR 010E
ENCODING 270
SWIDTH 768 0
DWIDTH 16 0
BBX 14 17 1 0
BITMAP
0900
0600
0000
FF80
3060
3038
3018
300C
300C
300C
300C
300C
300C
3018
3038
3070
FFC0
ENDCHAR
STARTCHAR 010F
ENCODING 271
SWIDTH 528 0
DWIDTH 11 0
BBX 11 14 1 0
BITMAP
0760
0340
0340
0380
0300
0300
3F00
4300
C300
C300
C300
C300
4300
3D80
ENDCHAR
STARTCHAR 0110
ENCODING 272
SWIDTH 768 0
DWIDTH 16 0
BBX 14 14 1 0
BITMAP
FF80
3060
3038
3018
300C
300C
300C
FF0C
300C
300C
3018
3038
3070
FFC0
ENDCHAR
STARTCHAR 0111
ENCODING 273
SWIDTH 528 0
DWIDTH 11 0
BBX 9 14 1 0
BITMAP
0700
0300
0300
1F80
0300
0300
3F00
4300
C300
C300
C300
C300
4300
3F80
ENDCHAR
STARTCHAR 0112
ENCODING 274
SWIDTH 624 0
DWIDTH 13 0
BBX 11 17 1 0
BITMAP
0E00
0000
0000
7FC0
3040
3040
3000
3000
3080
3180
3F80
3180
3000
3000
3020
3020
FFE0
ENDCHAR
STARTCHAR 0113
ENCODING 275
SWIDTH 432 0
DWIDTH 9 0
BBX 7 11 1 0
BITMAP
3C
00
00
3C
42
FE
C0
C0
C0
62
3C
ENDCHAR
STARTCHAR 0114
ENCODING 276
SWIDTH 624 0
DWIDTH 13 0
BBX 11 17 1 0
BITMAP
0900
0F00
0000
7FC0
3040
3040
3000
3000
3080
3080
3F80
3080
3000
3000
3020
3020
FFE0
ENDCHAR
STARTCHAR 0115
ENCODING 277
SWIDTH 432 0
DWIDTH 9 0
BBX 7 12 1 0
BITMAP
20
3C
00
00
3C
42
FE
C0
C0
C0
62
3C
ENDCHAR
STARTCHAR 0116
ENCODING 278
SWIDTH 624 0
DWIDTH 13 0
BBX 11 17 1 0
BITMAP
0600
0600
0000
7FC0
3040
3040
3000
3000
3080
3180
3F80
3180
3000
3000
3020
3020
FFE0
ENDCHAR
STARTCHAR 0117
ENCODING 279
SWIDTH 432 0
DWIDTH 9 0
BBX 7 12 1 0
BITMAP
18
18
00
00
3C
42
FE
C0
C0
C0
62
3C
ENDCHAR
STARTCHAR 0118
ENCODING 280
SWIDTH 624 0
DWIDTH 13 0
BBX 11 20 1 -6
BITMAP
7FC0
3040
3040
3000
3000
3080
3180
3F80
3180
3000
3000
3020
3020
FFE0
0180
0100
0300
0300
0300
01C0
ENDCHAR
STARTCHAR 0119
ENCODING 281
SWIDTH 432 0
DWIDTH 9 0
BBX 8 14 1 -6
BITMAP
3C
42
C2
FE
C0
C0
61
3E
08
18
10
10
11
1E
ENDCHAR
STARTCHAR 011A
ENCODING 282
SWIDTH 624 0
DWIDTH 13 0
BBX 11 17 1 0
BITMAP
0A00
0400
0000
7FC0
3040
3040
3000
3000
3080
3180
3F80
3180
3000
3000
3020
3020
FFE0
ENDCHAR
STARTCHAR 011B
ENCODING 283
SWIDTH 432 0
DWIDTH 9 0
BBX 7 12 1 1
BITMAP
24
18
00
00
3C
42
FE
C0
C0
C0
62
3C
ENDCHAR
STARTCHAR 011C
ENCODING 284
SWIDTH 768 0
DWIDTH 16 0
BBX 14 18 1 0
BITMAP
0100
0380
0440
0000
0FC8
3038
6018
6018
C000
C000
C000
C000
C07C
E018
6018
7018
3818
0FE0
ENDCHAR
STARTCHAR 011D
ENCODING 285
SWIDTH 480 0
DWIDTH 10 0
BBX 9 18 1 -6
BITMAP
1800
1800
2400
0000
3C00
4300
4200
4200
4200
2400
1800
E000
7E00
2700
C180
C100
C300
7C00
ENDCHAR
STARTCHAR 011E
ENCODING 286
SWIDTH 768 0
DWIDTH 16 0
BBX 14 17 1 1
BITMAP
0480
0300
0000
0FC8
3038
6018
6018
C000
C000
C000
C000
C07C
E018
6018
7018
3818
0FE0
ENDCHAR
STARTCHAR 011F
ENCODING 287
SWIDTH 480 0
DWIDTH 10 0
BBX 9 17 1 -5
BITMAP
2400
1800
0000
3C00
4300
4200
4200
4200
2400
1800
E000
7E00
2700
C180
C100
C300
7C00
ENDCHAR
STARTCHAR 0120
ENCODING 288
SWIDTH 768 0
DWIDTH 16 0
BBX 14 17 1 0
BITMAP
0300
0300
0000
0FC8
3038
6018
6018
C000
C000
C000
C000
C07C
E018
6018
7018
3818
0FE0
ENDCHAR
STARTCHAR 0121
ENCODING 289
SWIDTH 480 0
DWIDTH 10 0
BBX 9 18 1 -6
BITMAP
1800
1800
0000
0000
3C00
4300
4200
4200
4200
2400
1800
E000
7E00
2700
C180
C100
C300
7C00
ENDCHAR
STARTCHAR 0122
ENCODING 290
SWIDTH 768 0
DWIDTH 16 0
BBX 14 18 1 -5
BITMAP
0FC8
3038
6018
6018
C000
C000
C000
C000
C07C
E018
6018
7018
3818
0FE0
0000
0180
0080
0100
ENDCHAR
STARTCHAR 0123
ENCODING 291
SWIDTH 480 0
DWIDTH 10 0
BBX 9 18 1 -5
BITMAP
1800
1000
1800
0000
3C00
4300
4200
4200
4200
2400
1800
E000
7E00
2700
C180
C100
C300
7C00
ENDCHAR
STARTCHAR 0124
ENCODING 292
SWIDTH 768 0
DWIDTH 16 0
BBX 15 17 0 0
BITMAP
0180
0240
0000
783E
300C
300C
300C
300C
300C
300C
3FFC
300C
300C
300C
300C
300C
F83E
ENDCHAR
STARTCHAR 0125
ENCODING 293
SWIDTH 528 0
DWIDTH 11 0
BBX 9 17 1 0
BITMAP
6000
E000
1000
E000
6000
6000
6000
6000
6000
7E00
6300
6300
6300
6300
6300
6300
F780
ENDCHAR
STARTCHAR 0126
ENCODING 294
SWIDTH 768 0
DWIDTH 16 0
BBX 15 14 0 0
BITMAP
783E
300C
300C
7FFE
300C
300C
300C
3FFC
300C
300C
300C
300C
300C
F83E
ENDCHAR
STARTCHAR 0127
ENCODING 295
SWIDTH 528 0
DWIDTH 11 0
BBX 10 14 0 0
BITMAP
F000
3000
3000
FE00
3000
3000
3F00
3180
3180
3180
3180
3180
3180
7BC0
ENDCHAR
STARTCHAR 0128
ENCODING 296
SWIDTH 336 0
DWIDTH 7 0
BBX 5 17 1 0
BITMAP
68
90
00
F8
30
30
30
30
30
30
30
30
30
30
30
30
F8
ENDCHAR
STARTCHAR 0129
ENCODING 297
SWIDTH 240 0
DWIDTH 5 0
BBX 5 12 0 0
BITMAP
60
B0
00
00
70
30
30
30
30
30
30
78
ENDCHAR
STARTCHAR 012A
ENCODING 298
SWIDTH 336 0
DWIDTH 7 0
BBX 5 17 1 0
BITMAP
78
00
00
F8
30
30
30
30
30
30
30
30
30
30
30
30
F8
ENDCHAR
STARTCHAR 012B
ENCODING 299
SWIDTH 240 0
DWIDTH 5 0
BBX 5 11 0 0
BITMAP
F8
00
00
70
30
30
30
30
30
30
78
ENDCHAR
STARTCHAR 012C
ENCODING 300
SWIDTH 288 0
DWIDTH 6 0
BBX 6 17 0 0
BITMAP
48
78
00
FC
30
30
30
30
30
30
30
30
30
30
30
30
7C
ENDCHAR
STARTCHAR 012D
ENCODING 301
SWIDTH 288 0
DWIDTH 6 0
BBX 4 11 1 1
BITMAP
90
60
00
E0
60
60
60
60
60
60
F0
ENDCHAR
STARTCHAR 012E
ENCODING 302
SWIDTH 336 0
DWIDTH 7 0
BBX 6 20 0 -6
BITMAP
7C
30
30
30
30
30
30
30
30
30
30
30
30
FC
10
20
60
60
60
38
ENDCHAR
STARTCHAR 012F
ENCODING 303
SWIDTH 240 0
DWIDTH 5 0
BBX 4 18 1 -6
BITMAP
60
60
00
00
E0
60
60
60
60
60
60
F0
40
40
C0
C0
C0
70
ENDCHAR
STARTCHAR 0130
ENCODING 304
SWIDTH 336 0
DWIDTH 7 0
BBX 6 17 0 0
BITMAP
30
30
00
FC
30
30
30
30
30
30
30
30
30
30
30
30
FC
ENDCHAR
STARTCHAR 0131
ENCODING 305
SWIDTH 240 0
DWIDTH 5 0
BBX 4 8 1 0
BITMAP
E0
60
60
60
60
60
60
F0
ENDCHAR
STARTCHAR 0132
ENCODING 306
SWIDTH 672 0
DWIDTH 14 0
BBX 12 18 1 -4
BITMAP
F9F0
3060
3060
3060
3060
3060
3060
3060
3060
3060
3060
3040
3040
F840
0040
0040
0380
0300
ENDCHAR
STARTCHAR 0133
ENCODING 307
SWIDTH 576 0
DWIDTH 12 0
BBX 9 18 1 -6
BITMAP
6300
6300
0000
0000
E780
6180
6180
6180
6180
6180
6180
F180
0180
0180
0180
0180
0100
0600
ENDCHAR
STARTCHAR 0134
ENCODING 308
SWIDTH 336 0
DWIDTH 7 0
BBX 6 21 0 -4
BITMAP
38
44
00
7C
18
18
18
18
18
18
18
18
18
18
10
10
10
10
10
E0
80
ENDCHAR
STARTCHAR 0135
ENCODING 309
SWIDTH 288 0
DWIDTH 6 0
BBX 4 17 1 -5
BITMAP
60
90
00
F0
30
30
30
30
30
30
30
20
20
20
20
60
80
ENDCHAR
STARTCHAR 0136
ENCODING 310
SWIDTH 624 0
DWIDTH 13 0
BBX 13 19 0 -5
BITMAP
78F0
3040
3080
3080
3100
3200
3600
3E00
3700
3380
31C0
30E0
3070
FC78
0000
0200
0300
0200
0400
ENDCHAR
STARTCHAR 0137
ENCODING 311
SWIDTH 432 0
DWIDTH 9 0
BBX 9 19 0 -5
BITMAP
F000
3000
3000
3000
3000
3000
3700
3400
3400
3800
3400
3600
3300
7380
0000
0800
0C00
0400
0800
ENDCHAR
STARTCHAR 0138
ENCODING 312
SWIDTH 480 0
DWIDTH 10 0
BBX 8 8 1 0
BITMAP
E6
64
68
70
68
64
66
E7
ENDCHAR
STARTCHAR 0139
ENCODING 313
SWIDTH 576 0
DWIDTH 12 0
BBX 11 17 1 0
BITMAP
0800
1000
0000
F800
3000
3000
3000
3000
3000
3000
3000
3000
3000
3000
3020
3020
FFE0
ENDCHAR
STARTCHAR 013A
ENCODING 314
SWIDTH 240 0
DWIDTH 5 0
BBX 5 17 0 0
BITMAP
18
10
20
E0
30
30
30
30
30
30
30
30
30
30
30
30
78
ENDCHAR
STARTCHAR 013B
ENCODING 315
SWIDTH 624 0
DWIDTH 13 0
BBX 11 19 1 -5
BITMAP
F800
3000
3000
3000
3000
3000
3000
3000
3000
3000
3000
3020
3020
FFE0
0000
0200
0200
0200
0400
ENDCHAR
STARTCHAR 013C
ENCODING 316
SWIDTH 240 0
DWIDTH 5 0
BBX 5 19 0 -5
BITMAP
E0
30
30
30
30
30
30
30
30
30
30
30
30
78
00
20
10
10
20
ENDCHAR
STARTCHAR 013D
ENCODING 317
SWIDTH 624 0
DWIDTH 13 0
BBX 11 14 1 0
BITMAP
F900
3100
3200
3200
3000
3000
3000
3000
3000
3000
3000
3020
3020
FFE0
ENDCHAR
STARTCHAR 013E
ENCODING 318
SWIDTH 240 0
DWIDTH 5 0
BBX 5 14 1 0
BITMAP
E8
68
70
70
60
60
60
60
60
60
60
60
60
F0
ENDCHAR
STARTCHAR 013F
ENCODING 319
SWIDTH 624 0
DWIDTH 13 0
BBX 11 14 1 0
BITMAP
F800
3000
3000
3000
3000
3000
30C0
30C0
3000
3000
3000
3020
3020
FFE0
ENDCHAR
STARTCHAR 0140
ENCODING 320
SWIDTH 432 0
DWIDTH 9 0
BBX 8 14 0 0
BITMAP
E0
30
30
30
30
30
33
33
30
30
30
30
30
78
ENDCHAR
STARTCHAR 0141
ENCODING 321
SWIDTH 576 0
DWIDTH 12 0
BBX 11 14 1 0
BITMAP
F800
3000
3000
3000
3000
3080
3300
3C00
3000
F000
3000
3020
3020
FFE0
ENDCHAR
STARTCHAR 0142
ENCODING 322
SWIDTH 240 0
DWIDTH 5 0
BBX 4 14 1 0
BITMAP
C0
60
60
60
60
60
60
E0
60
60
60
60
60
F0
ENDCHAR
STARTCHAR 0143
ENCODING 323
SWIDTH 768 0
DWIDTH 16 0
BBX 15 17 0 1
BITMAP
0040
0080
0000
781E
3804
2C04
2604
2304
2184
2184
20C4
2064
2034
2014
201C
200C
F804
ENDCHAR
STARTCHAR 0144
ENCODING 324
SWIDTH 528 0
DWIDTH 11 0
BBX 9 12 1 1
BITMAP
0600
0400
0800
0000
CE00
7300
6300
6300
6300
6300
6300
F780
ENDCHAR
STARTCHAR 0145
ENCODING 325
SWIDTH 768 0
DWIDTH 16 0
BBX 15 18 0 -5
BITMAP
781E
3804
2C04
2604
2304
2184
2184
20C4
2064
2034
2014
201C
200C
F804
0000
0180
0080
0100
ENDCHAR
STARTCHAR 0146
ENCODING 326
SWIDTH 528 0
DWIDTH 11 0
BBX 9 13 1 -5
BITMAP
CE00
7300
6300
6300
6300
6300
6300
F780
0000
0800
0C00
0800
1000
ENDCHAR
STARTCHAR 0147
ENCODING 327
SWIDTH 768 0
DWIDTH 16 0
BBX 15 17 0 1
BITMAP
0140
0080
0000
781E
3804
2C04
2604
2304
2184
2184
20C4
2064
2034
2014
201C
200C
F804
ENDCHAR
STARTCHAR 0148
ENCODING 328
SWIDTH 528 0
DWIDTH 11 0
BBX 9 12 1 0
BITMAP
0400
1C00
0800
0000
CE00
7300
6300
6300
6300
6300
6300
F780
ENDCHAR
STARTCHAR 0149
ENCODING 329
SWIDTH 768 0
DWIDTH 16 0
BBX 14 14 1 0
BITMAP
4000
4000
4000
4000
8000
0000
0EF0
0718
0618
0618
0618
0618
0618
0F3C
ENDCHAR
STARTCHAR 014A
ENCODING 330
SWIDTH 768 0
DWIDTH 16 0
BBX 15 20 0 -6
BITMAP
781E
3804
2C04
2604
2304
2384
2184
20C4
2064
2074
2034
201C
200C
F80C
000C
000C
000C
0008
0008
0030
ENDCHAR
STARTCHAR 014B
ENCODING 331
SWIDTH 528 0
DWIDTH 11 0
BBX 8 14 1 -6
BITMAP
CE
73
63
63
63
63
63
F3
03
03
03
03
02
0C
ENDCHAR
STARTCHAR 014C
ENCODING 332
SWIDTH 720 0
DWIDTH 15 0
BBX 14 17 1 0
BITMAP
0F80
0000
0000
0FC0
1020
2010
4018
C008
C008
C008
C00C
C008
C008
4018
6010
3020
0FC0
ENDCHAR
STARTCHAR 014D
ENCODING 333
SWIDTH 480 0
DWIDTH 10 0
BBX 8 11 1 0
BITMAP
3C
00
00
3C
42
C3
C3
C3
C3
42
3C
ENDCHAR
STARTCHAR 014E
ENCODING 334
SWIDTH 720 0
DWIDTH 15 0
BBX 14 17 1 0
BITMAP
0480
0780
0000
0FC0
1020
2010
4018
C008
C008
C008
C00C
C008
C008
4018
6010
3020
0FC0
ENDCHAR
STARTCHAR 014F
ENCODING 335
SWIDTH 480 0
DWIDTH 10 0
BBX 8 12 1 0
BITMAP
24
3C
00
00
3C
42
C3
C3
C3
C3
42
3C
ENDCHAR
STARTCHAR 0150
ENCODING 336
SWIDTH 720 0
DWIDTH 15 0
BBX 14 17 1 1
BITMAP
02C0
0480
0000
0FC0
1020
2010
4018
C008
C008
C008
C00C
C008
C008
4018
6010
3020
0FC0
ENDCHAR
STARTCHAR 0151
ENCODING 337
SWIDTH 480 0
DWIDTH 10 0
BBX 8 13 1 0
BITMAP
02
1A
14
00
00
3C
42
C3
C3
C3
C3
42
3C
ENDCHAR
STARTCHAR 0152
ENCODING 338
SWIDTH 1008 0
DWIDTH 21 0
BBX 20 14 1 0
BITMAP
0FFFC0
103040
203040
403000
C03000
C030C0
C03FC0
C030C0
C03000
C03000
403000
603030
303030
0FFFF0
ENDCHAR
STARTCHAR 0153
ENCODING 339
SWIDTH 768 0
DWIDTH 16 0
BBX 14 8 1 0
BITMAP
3C78
438C
C3FC
C300
C300
C300
4384
3CF8
ENDCHAR
STARTCHAR 0154
ENCODING 340
SWIDTH 672 0
DWIDTH 14 0
BBX 13 17 1 0
BITMAP
0300
0200
0000
FF80
30C0
3040
3040
3040
3040
3080
3F00
30C0
3040
3060
3060
3060
7878
ENDCHAR
STARTCHAR 0155
ENCODING 341
SWIDTH 336 0
DWIDTH 7 0
BBX 6 12 0 0
BITMAP
04
08
00
00
FC
34
30
30
30
30
30
78
ENDCHAR
STARTCHAR 0156
ENCODING 342
SWIDTH 672 0
DWIDTH 14 0
BBX 13 19 1 -5
BITMAP
FF80
30C0
3040
3040
3040
3040
3080
3F00
30C0
3040
3060
3060
3060
7878
0000
0200
0100
0100
0200
ENDCHAR
STARTCHAR 0157
ENCODING 343
SWIDTH 336 0
DWIDTH 7 0
BBX 6 13 0 -5
BITMAP
FC
30
30
30
30
30
30
78
00
00
10
10
20
ENDCHAR
STARTCHAR 0158
ENCODING 344
SWIDTH 672 0
DWIDTH 14 0
BBX 13 17 1 0
BITMAP
0300
0C00
0000
FF80
30C0
3040
3040
3040
3040
3080
3F00
30C0
3040
3060
3060
3060
7878
ENDCHAR
STARTCHAR 0159
ENCODING 345
SWIDTH 336 0
DWIDTH 7 0
BBX 6 12 0 0
BITMAP
24
18
00
00
FC
30
30
30
30
30
30
78
ENDCHAR
STARTCHAR 015A
ENCODING 346
SWIDTH 528 0
DWIDTH 11 0
BBX 10 17 1 1
BITMAP
0400
0800
0000
3EC0
41C0
C0C0
C080
C000
E000
7C00
1F00
0380
0180
8180
8180
8100
7E00
ENDCHAR
STARTCHAR 015B
ENCODING 347
SWIDTH 336 0
DWIDTH 7 0
BBX 5 12 1 1
BITMAP
18
10
00
00
78
C8
C0
E0
38
08
88
F0
ENDCHAR
STARTCHAR 015C
ENCODING 348
SWIDTH 528 0
DWIDTH 11 0
BBX 10 17 1 0
BITMAP
1800
2400
0000
3EC0
41C0
C0C0
C080
C000
E000
7C00
1F00
0380
0180
8180
8180
8100
7E00
ENDCHAR
STARTCHAR 015D
ENCODING 349
SWIDTH 336 0
DWIDTH 7 0
BBX 5 12 1 1
BITMAP
30
50
00
00
78
C8
C0
E0
38
08
88
F0
ENDCHAR
STARTCHAR 015E
ENCODING 350
SWIDTH 528 0
DWIDTH 11 0
BBX 10 19 1 -5
BITMAP
3EC0
41C0
C0C0
C080
C000
E000
7C00
1F00
0780
0180
8180
8180
8100
7E00
1000
0C00
0600
0600
1800
ENDCHAR
STARTCHAR 015F
ENCODING 351
SWIDTH 336 0
DWIDTH 7 0
BBX 5 13 1 -5
BITMAP
78
C8
C0
E0
38
08
88
F0
20
30
18
18
60
ENDCHAR
STARTCHAR 0160
ENCODING 352
SWIDTH 528 0
DWIDTH 11 0
BBX 10 17 1 0
BITMAP
2400
1800
0000
3EC0
41C0
C0C0
C080
C000
E000
7C00
1F00
0380
0180
8180
8180
8100
7E00
ENDCHAR
STARTCHAR 0161
ENCODING 353
SWIDTH 336 0
DWIDTH 7 0
BBX 5 12 1 1
BITMAP
50
30
20
00
78
C8
C0
E0
38
08
88
F0
ENDCHAR
STARTCHAR 0162
ENCODING 354
SWIDTH 672 0
DWIDTH 14 0
BBX 14 19 0 -5
BITMAP
7FFC
8304
8304
0300
0300
0300
0300
0300
0300
0300
0300
0300
0300
0FC0
0200
0300
0080
0080
0300
ENDCHAR
STARTCHAR 0163
ENCODING 355
SWIDTH 336 0
DWIDTH 7 0
BBX 5 15 1 -5
BITMAP
20
60
F8
60
60
60
60
60
60
78
20
30
18
18
60
ENDCHAR
STARTCHAR 0164
ENCODING 356
SWIDTH 672 0
DWIDTH 14 0
BBX 14 17 0 0
BITMAP
0480
0300
0200
7FFC
8304
8304
0300
0300
0300
0300
0300
0300
0300
0300
0300
0300
0F80
ENDCHAR
STARTCHAR 0165
ENCODING 357
SWIDTH 336 0
DWIDTH 7 0
BBX 5 14 1 0
BITMAP
08
08
10
10
20
60
F8
60
60
60
60
60
60
78
ENDCHAR
STARTCHAR 0166
ENCODING 358
SWIDTH 672 0
DWIDTH 14 0
BBX 14 14 0 0
BITMAP
7FFC
8304
8304
0300
0300
0300
0300
1FE0
0300
0300
0300
0300
0300
0F80
ENDCHAR
STARTCHAR 0167
ENCODING 359
SWIDTH 336 0
DWIDTH 7 0
BBX 5 10 1 0
BITMAP
20
60
F8
60
60
F8
60
60
60
78
ENDCHAR
STARTCHAR 0168
ENCODING 360
SWIDTH 768 0
DWIDTH 16 0
BBX 14 17 1 0
BITMAP
0680
0900
0000
F07C
6018
6018
6018
6018
6018
6018
6018
6018
6018
6018
6018
3038
1FD0
ENDCHAR
STARTCHAR 0169
ENCODING 361
SWIDTH 528 0
DWIDTH 11 0
BBX 8 12 2 0
BITMAP
20
58
00
00
C6
C6
C6
C6
C6
C6
C6
7B
ENDCHAR
STARTCHAR 016A
ENCODING 362
SWIDTH 768 0
DWIDTH 16 0
BBX 14 17 1 0
BITMAP
0780
0000
0000
F07C
6018
6018
6018
6018
6018
6018
6018
6018
6018
6018
6018
3038
1FD0
ENDCHAR
STARTCHAR 016B
ENCODING 363
SWIDTH 528 0
DWIDTH 11 0
BBX 8 11 2 0
BITMAP
78
00
00
C6
C6
C6
C6
C6
C6
C6
7B
ENDCHAR
STARTCHAR 016C
ENCODING 364
SWIDTH 768 0
DWIDTH 16 0
BBX 14 17 1 0
BITMAP
0480
0780
0000
F07C
6018
6018
6018
6018
6018
6018
6018
6018
6018
6018
6018
3038
1FD0
ENDCHAR
STARTCHAR 016D
ENCODING 365
SWIDTH 528 0
DWIDTH 11 0
BBX 8 12 2 0
BITMAP
48
78
00
00
C6
C6
C6
C6
C6
C6
C6
7B
ENDCHAR
STARTCHAR 016E
ENCODING 366
SWIDTH 768 0
DWIDTH 16 0
BBX 14 18 1 0
BITMAP
0300
0680
0680
0300
F03C
6018
6018
6018
6018
6018
6018
6018
6018
6018
6018
6018
3038
1FD0
ENDCHAR
STARTCHAR 016F
ENCODING 367
SWIDTH 528 0
DWIDTH 11 0
BBX 8 13 2 0
BITMAP
18
38
38
18
00
C6
C6
C6
C6
C6
C6
C6
7B
ENDCHAR
STARTCHAR 0170
ENCODING 368
SWIDTH 768 0
DWIDTH 16 0
BBX 14 17 1 1
BITMAP
0240
0480
0000
F07C
6018
6018
6018
6018
6018
6018
6018
6018
6018
6018
6018
3038
1FD0
ENDCHAR
STARTCHAR 0171
ENCODING 369
SWIDTH 528 0
DWIDTH 11 0
BBX 8 12 2 1
BITMAP
14
28
00
00
C6
C6
C6
C6
C6
C6
C6
7B
ENDCHAR
STARTCHAR 0172
ENCODING 370
SWIDTH 768 0
DWIDTH 16 0
BBX 14 20 1 -6
BITMAP
F03C
6018
6018
6018
6018
6018
6018
6018
6018
6018
6018
6018
3038
1FD0
0200
0200
0400
0400
0400
0780
ENDCHAR
STARTCHAR 0173
ENCODING 371
SWIDTH 528 0
DWIDTH 11 0
BBX 8 14 2 -6
BITMAP
C6
C6
C6
C6
C6
C6
C6
7F
04
08
08
08
08
0F
ENDCHAR
STARTCHAR 0174
ENCODING 372
SWIDTH 1008 0
DWIDTH 21 0
BBX 20 17 0 1
BITMAP
006000
009000
000000
F9F8F0
606020
202020
307040
307040
10B080
189080
189880
191900
0D0900
0E0E00
0E0E00
060C00
040400
ENDCHAR
STARTCHAR 0175
ENCODING 373
SWIDTH 720 0
DWIDTH 15 0
BBX 13 13 1 0
BITMAP
0200
0700
0880
0000
0000
E738
4310
6510
6520
29A0
38C0
18C0
1080
ENDCHAR
STARTCHAR 0176
ENCODING 374
SWIDTH 576 0
DWIDTH 12 0
BBX 11 17 0 0
BITMAP
0600
0900
0000
F8E0
6040
3080
3080
1900
0900
0E00
0600
0600
0600
0600
0600
0600
1F00
ENDCHAR
STARTCHAR 0177
ENCODING 375
SWIDTH 480 0
DWIDTH 10 0
BBX 9 18 0 -6
BITMAP
0C00
0C00
1200
0000
F380
6100
3100
3200
1200
1C00
0C00
0C00
0800
0800
0800
1000
6000
4000
ENDCHAR
STARTCHAR 0178
ENCODING 376
SWIDTH 576 0
DWIDTH 12 0
BBX 12 17 0 0
BITMAP
0D80
0D80
0000
F8F0
3040
3040
1880
1880
0D00
0600
0600
0600
0600
0600
0600
0600
0F80
ENDCHAR
STARTCHAR 0179
ENCODING 377
SWIDTH 624 0
DWIDTH 13 0
BBX 11 17 1 0
BITMAP
0300
0200
0000
FFE0
81C0
8180
0380
0300
0600
0E00
0C00
1800
3800
3000
6020
E020
FFE0
ENDCHAR
STARTCHAR 017A
ENCODING 378
SWIDTH 432 0
DWIDTH 9 0
BBX 7 12 1 1
BITMAP
08
08
10
00
FE
8C
08
18
30
20
62
FE
ENDCHAR
STARTCHAR 017B
ENCODING 379
SWIDTH 624 0
DWIDTH 13 0
BBX 12 17 0 0
BITMAP
0600
0600
0000
7FF0
80E0
00C0
0180
0380
0300
0600
0E00
0C00
1800
3800
3010
6010
FFF0
ENDCHAR
STARTCHAR 017C
ENCODING 380
SWIDTH 384 0
DWIDTH 8 0
BBX 7 12 1 0
BITMAP
30
30
00
00
FC
88
18
30
20
60
C2
FE
ENDCHAR
STARTCHAR 017D
ENCODING 381
SWIDTH 624 0
DWIDTH 13 0
BBX 11 17 1 0
BITMAP
0A00
0400
0000
FFE0
81C0
8180
0380
0300
0600
0E00
0C00
1800
3800
3000
6020
E020
FFE0
ENDCHAR
STARTCHAR 017E
ENCODING 382
SWIDTH 432 0
DWIDTH 9 0
BBX 7 12 1 0
BITMAP
48
38
10
00
FE
8C
08
18
30
20
62
FE
ENDCHAR
STARTCHAR 017F
ENCODING 383
SWIDTH 288 0
DWIDTH 6 0
BBX 6 14 1 0
BITMAP
3C
24
60
60
60
60
60
60
60
60
60
60
60
F0
ENDCHAR
STARTCHAR 0218
ENCODING 536
SWIDTH 528 0
DWIDTH 11 0
BBX 10 18 1 -5
BITMAP
3EC0
41C0
C0C0
C080
C000
E000
7C00
1F00
0380
0180
8180
8180
8100
7E00
0000
0C00
0C00
0800
ENDCHAR
STARTCHAR 0219
ENCODING 537
SWIDTH 336 0
DWIDTH 7 0
BBX 5 12 1 -5
BITMAP
78
C8
C0
E0
38
08
88
D0
20
30
10
20
ENDCHAR
STARTCHAR 021A
ENCODING 538
SWIDTH 672 0
DWIDTH 14 0
BBX 14 19 0 -5
BITMAP
7FFC
8304
8304
0300
0300
0300
0300
0300
0300
0300
0300
0300
0300
0FC0
0000
0200
0100
0100
0200
ENDCHAR
STARTCHAR 021B
ENCODING 539
SWIDTH 336 0
DWIDTH 7 0
BBX 5 14 1 -5
BITMAP
20
60
F8
60
60
60
60
60
60
78
00
30
30
20
ENDCHAR
STARTCHAR 0237
ENCODING 567
SWIDTH 288 0
DWIDTH 6 0
BBX 4 14 1 -6
BITMAP
F0
30
30
30
30
30
30
30
20
20
20
20
60
80
ENDCHAR
STARTCHAR 02BB
ENCODING 699
SWIDTH 384 0
DWIDTH 8 0
BBX 2 3 3 10
BITMAP
C0
80
C0
ENDCHAR
STARTCHAR 02BC
ENCODING 700
SWIDTH 384 0
DWIDTH 8 0
BBX 1 3 9 11
BITMAP
80
80
80
ENDCHAR
STARTCHAR 02C0
ENCODING 704
SWIDTH 384 0
DWIDTH 8 0
BBX 0 0 0 0
BITMAP
ENDCHAR
STARTCHAR 02C6
ENCODING 710
SWIDTH 384 0
DWIDTH 8 0
BBX 4 3 2 9
BITMAP
60
70
90
ENDCHAR
STARTCHAR 02C7
ENCODING 711
SWIDTH 384 0
DWIDTH 8 0
BBX 4 3 2 9
BITMAP
90
70
60
ENDCHAR
STARTCHAR 02D8
ENCODING 728
SWIDTH 384 0
DWIDTH 8 0
BBX 4 2 2 9
BITMAP
90
60
ENDCHAR
STARTCHAR 02D9
ENCODING 729
SWIDTH 384 0
DWIDTH 8 0
BBX 2 2 3 10
BITMAP
C0
C0
ENDCHAR
STARTCHAR 02DA
ENCODING 730
SWIDTH 432 0
DWIDTH 9 0
BBX 4 3 3 9
BITMAP
60
F0
60
ENDCHAR
STARTCHAR 02DB
ENCODING 731
SWIDTH 384 0
DWIDTH 8 0
BBX 5 6 2 -6
BITMAP
20
40
C0
C0
C8
70
ENDCHAR
STARTCHAR 02DC
ENCODING 732
SWIDTH 384 0
DWIDTH 8 0
BBX 4 2 2 10
BITMAP
40
B0
ENDCHAR
STARTCHAR 02DD
ENCODING 733
SWIDTH 384 0
DWIDTH 8 0
BBX 5 4 2 9
BITMAP
08
68
50
90
ENDCHAR
STARTCHAR 0300
ENCODING 768
SWIDTH 0 0
DWIDTH 0 0
BBX 2 3 -6 10
BITMAP
80
40
40
ENDCHAR
STARTCHAR 0301
ENCODING 769
SWIDTH 0 0
DWIDTH 0 0
BBX 2 3 -4 10
BITMAP
C0
80
80
ENDCHAR
STARTCHAR 0302
ENCODING 770
SWIDTH 0 0
DWIDTH 0 0
BBX 4 3 -6 9
BITMAP
60
E0
90
ENDCHAR
STARTCHAR 0303
ENCODING 771
SWIDTH 0 0
DWIDTH 0 0
BBX 4 2 -6 10
BITMAP
D0
A0
ENDCHAR
STARTCHAR 0304
ENCODING 772
SWIDTH 0 0
DWIDTH 0 0
BBX 4 1 -6 10
BITMAP
F0
ENDCHAR
STARTCHAR 0306
ENCODING 774
SWIDTH 0 0
DWIDTH 0 0
BBX 4 2 -6 9
BITMAP
90
60
ENDCHAR
STARTCHAR 0307
ENCODING 775
SWIDTH 0 0
DWIDTH 0 0
BBX 2 2 -5 10
BITMAP
C0
C0
ENDCHAR
STARTCHAR 0308
ENCODING 776
SWIDTH 0 0
DWIDTH 0 0
BBX 5 2 -7 10
BITMAP
D8
D8
ENDCHAR
STARTCHAR 030A
ENCODING 778
SWIDTH 0 0
DWIDTH 0 0
BBX 4 3 -6 9
BITMAP
60
F0
60
ENDCHAR
STARTCHAR 030B
ENCODING 779
SWIDTH 0 0
DWIDTH 0 0
BBX 5 3 -6 10
BITMAP
58
50
A0
ENDCHAR
STARTCHAR 030C
ENCODING 780
SWIDTH 0 0
DWIDTH 0 0
BBX 4 3 -6 9
BITMAP
10
E0
60
ENDCHAR
STARTCHAR 0312
ENCODING 786
SWIDTH 0 0
DWIDTH 0 0
BBX 2 3 -5 10
BITMAP
C0
80
C0
ENDCHAR
STARTCHAR 0315
ENCODING 789
SWIDTH 0 0
DWIDTH 0 0
BBX 1 3 0 11
BITMAP
80
80
80
ENDCHAR
STARTCHAR 0326
ENCODING 806
SWIDTH 0 0
DWIDTH 0 0
BBX 2 3 -5 -4
BITMAP
C0
40
80
ENDCHAR
STARTCHAR 0327
ENCODING 807
SWIDTH 0 0
DWIDTH 0 0
BBX 3 4 -5 -4
BITMAP
E0
20
20
C0
ENDCHAR
STARTCHAR 0328
ENCODING 808
SWIDTH 0 0
DWIDTH 0 0
BBX 5 6 -6 -6
BITMAP
20
40
C0
C0
C8
70
ENDCHAR
STARTCHAR 1E02
ENCODING 7682
SWIDTH 576 0
DWIDTH 12 0
BBX 10 17 1 0
BITMAP
0C00
0C00
0000
FF00
3080
30C0
30C0
30C0
3080
3100
3E00
3180
3040
3040
3040
30C0
FF00
ENDCHAR
STARTCHAR 1E03
ENCODING 7683
SWIDTH 528 0
DWIDTH 11 0
BBX 9 17 1 0
BITMAP
6000
6000
0000
C000
6000
6000
6000
6000
6000
7E00
6300
6180
6180
6180
6180
6100
7E00
ENDCHAR
STARTCHAR 1E0A
ENCODING 7690
SWIDTH 768 0
DWIDTH 16 0
BBX 14 17 1 0
BITMAP
0300
0300
0000
FF80
3060
3038
3018
300C
300C
300C
300C
300C
300C
3018
3038
3070
FFC0
ENDCHAR
STARTCHAR 1E0B
ENCODING 7691
SWIDTH 528 0
DWIDTH 11 0
BBX 9 17 1 0
BITMAP
0300
0300
0000
0700
0300
0300
0300
0300
0300
3F00
4300
C300
C300
C300
C300
4300
3D80
ENDCHAR
STARTCHAR 1E1E
ENCODING 7710
SWIDTH 528 0
DWIDTH 11 0
BBX 10 17 1 0
BITMAP
0C00
0C00
0000
FF80
6040
6040
6000
6000
60C0
60C0
7FC0
60C0
6000
6000
6000
6000
F800
ENDCHAR
STARTCHAR 1E1F
ENCODING 7711
SWIDTH 336 0
DWIDTH 7 0
BBX 6 17 1 0
BITMAP
18
18
00
3C
64
60
60
60
60
F8
60
60
60
60
60
60
F0
ENDCHAR
STARTCHAR 1E22
ENCODING 7714
SWIDTH 768 0
DWIDTH 16 0
BBX 15 17 0 0
BITMAP
0180
0180
0000
783E
300C
300C
300C
300C
300C
300C
3FFC
300C
300C
300C
300C
300C
F83E
ENDCHAR
STARTCHAR 1E23
ENCODING 7715
SWIDTH 528 0
DWIDTH 11 0
BBX 9 17 1 0
BITMAP
6000
6000
0000
E000
6000
6000
6000
6000
6000
7E00
6300
6100
6100
6180
6180
6180
F380
ENDCHAR
STARTCHAR 1E40
ENCODING 7744
SWIDTH 864 0
DWIDTH 18 0
BBX 18 17 0 0
BITMAP
004000
004000
000000
780380
380700
2C0700
2C0F00
240B00
260B00
261300
231300
233300
21A300
21A300
20C300
20C300
F887C0
ENDCHAR
STARTCHAR 1E41
ENCODING 7745
SWIDTH 768 0
DWIDTH 16 0
BBX 14 12 1 0
BITMAP
0300
0300
0000
0000
CEF0
7318
6218
6318
6318
6318
6318
E73C
ENDCHAR
STARTCHAR 1E56
ENCODING 7766
SWIDTH 576 0
DWIDTH 12 0
BBX 10 17 1 0
BITMAP
0600
0600
0000
FF00
30C0
3040
3040
3040
3040
30C0
3F00
3000
3000
3000
3000
3000
FC00
ENDCHAR
STARTCHAR 1E57
ENCODING 7767
SWIDTH 480 0
DWIDTH 10 0
BBX 9 18 0 -6
BITMAP
0600
0600
0000
0000
EF00
3180
3080
3080
3080
3080
3180
3A00
3400
3000
3000
3000
3000
7C00
ENDCHAR
STARTCHAR 1E60
ENCODING 7776
SWIDTH 528 0
DWIDTH 11 0
BBX 10 17 1 0
BITMAP
1800
1800
0000
3EC0
41C0
C0C0
C080
C000
E000
7C00
1F00
0380
0180
8180
8180
8100
7E00
ENDCHAR
STARTCHAR 1E61
ENCODING 7777
SWIDTH 336 0
DWIDTH 7 0
BBX 5 12 1 0
BITMAP
30
30
00
00
78
C8
C0
E0
38
08
88
F0
ENDCHAR
STARTCHAR 1E6A
ENCODING 7786
SWIDTH 672 0
DWIDTH 14 0
BBX 14 17 0 0
BITMAP
0300
0300
0000
7FFC
8304
8304
0300
0300
0300
0300
0300
0300
0300
0300
0300
0300
0FC0
ENDCHAR
STARTCHAR 1E6B
ENCODING 7787
SWIDTH 288 0
DWIDTH 6 0
BBX 4 13 1 0
BITMAP
60
60
00
20
60
F0
60
60
60
60
60
60
70
ENDCHAR
STARTCHAR 2000
ENCODING 8192
SWIDTH 480 0
DWIDTH 10 0
BBX 0 0 0 0
BITMAP
ENDCHAR
STARTCHAR 2001
ENCODING 8193
SWIDTH 1008 0
DWIDTH 21 0
BBX 0 0 0 0
BITMAP
ENDCHAR
STARTCHAR 2002
ENCODING 8194
SWIDTH 480 0
DWIDTH 10 0
BBX 0 0 0 0
BITMAP
ENDCHAR
STARTCHAR 2003
ENCODING 8195
SWIDTH 1008 0
DWIDTH 21 0
BBX 0 0 0 0
BITMAP
ENDCHAR
STARTCHAR 2004
ENCODING 8196
SWIDTH 336 0
DWIDTH 7 0
BBX 0 0 0 0
BITMAP
ENDCHAR
STARTCHAR 2005
ENCODING 8197
SWIDTH 240 0
DWIDTH 5 0
BBX 0 0 0 0
BITMAP
ENDCHAR
STARTCHAR 2006
ENCODING 8198
SWIDTH 144 0
DWIDTH 3 0
BBX 0 0 0 0
BITMAP
ENDCHAR
STARTCHAR 2007
ENCODING 8199
SWIDTH 480 0
DWIDTH 10 0
BBX 0 0 0 0
BITMAP
ENDCHAR
STARTCHAR 2008
ENCODING 8200
SWIDTH 240 0
DWIDTH 5 0
BBX 0 0 0 0
BITMAP
ENDCHAR
STARTCHAR 2009
ENCODING 8201
SWIDTH 144 0
DWIDTH 3 0
BBX 0 0 0 0
BITMAP
ENDCHAR
STARTCHAR 200A
ENCODING 8202
SWIDTH 96 0
DWIDTH 2 0
BBX 0 0 0 0
BITMAP
ENDCHAR
STARTCHAR 200B
ENCODING 8203
SWIDTH 0 0
DWIDTH 0 0
BBX 0 0 0 0
BITMAP
ENDCHAR
STARTCHAR 200C
ENCODING 8204
SWIDTH 0 0
DWIDTH 0 0
BBX 0 0 0 0
BITMAP
ENDCHAR
STARTCHAR 200D
ENCODING 8205
SWIDTH 0 0
DWIDTH 0 0
BBX 0 0 0 0
BITMAP
ENDCHAR
STARTCHAR 200E
ENCODING 8206
SWIDTH 0 0
DWIDTH 0 0
BBX 0 0 0 0
BITMAP
ENDCHAR
STARTCHAR 200F
ENCODING 8207
SWIDTH 0 0
DWIDTH 0 0
BBX 0 0 0 0
BITMAP
ENDCHAR
STARTCHAR 2010
ENCODING 8208
SWIDTH 240 0
DWIDTH 5 0
BBX 4 1 1 4
BITMAP
F0
ENDCHAR
STARTCHAR 2011
ENCODING 8209
SWIDTH 240 0
DWIDTH 5 0
BBX 4 1 1 4
BITMAP
F0
ENDCHAR
STARTCHAR 2012
ENCODING 8210
SWIDTH 480 0
DWIDTH 10 0
BBX 6 1 2 4
BITMAP
FC
ENDCHAR
STARTCHAR 2013
ENCODING 8211
SWIDTH 480 0
DWIDTH 10 0
BBX 10 1 0 3
BITMAP
FFC0
ENDCHAR
STARTCHAR 2014
ENCODING 8212
SWIDTH 768 0
DWIDTH 16 0
BBX 15 1 0 3
BITMAP
FFFE
ENDCHAR
STARTCHAR 2015
ENCODING 8213
SWIDTH 768 0
DWIDTH 16 0
BBX 15 1 0 3
BITMAP
FFFE
ENDCHAR
STARTCHAR 2018
ENCODING 8216
SWIDTH 192 0
DWIDTH 4 0
BBX 2 5 1 9
BITMAP
40
80
80
80
80
ENDCHAR
STARTCHAR 2019
ENCODING 8217
SWIDTH 192 0
DWIDTH 4 0
BBX 2 5 1 9
BITMAP
40
40
40
40
80
ENDCHAR
STARTCHAR 201A
ENCODING 8218
SWIDTH 192 0
DWIDTH 4 0
BBX 2 5 1 -3
BITMAP
40
40
40
40
80
ENDCHAR
STARTCHAR 201B
ENCODING 8219
SWIDTH 192 0
DWIDTH 4 0
BBX 2 5 1 9
BITMAP
80
80
80
80
40
ENDCHAR
STARTCHAR 201C
ENCODING 8220
SWIDTH 384 0
DWIDTH 8 0
BBX 6 5 1 9
BITMAP
44
88
88
88
88
ENDCHAR
STARTCHAR 201D
ENCODING 8221
SWIDTH 384 0
DWIDTH 8 0
BBX 6 5 1 9
BITMAP
44
44
44
44
88
ENDCHAR
STARTCHAR 201E
ENCODING 8222
SWIDTH 384 0
DWIDTH 8 0
BBX 6 5 1 -3
BITMAP
44
44
44
44
88
ENDCHAR
STARTCHAR 201F
ENCODING 8223
SWIDTH 384 0
DWIDTH 8 0
BBX 6 5 1 9
BITMAP
88
88
88
88
44
ENDCHAR
STARTCHAR 2020
ENCODING 8224
SWIDTH 480 0
DWIDTH 10 0
BBX 8 18 1 -4
BITMAP
18
18
18
18
10
FF
18
18
18
18
18
18
18
18
18
18
18
18
ENDCHAR
STARTCHAR 2021
ENCODING 8225
SWIDTH 432 0
DWIDTH 9 0
BBX 8 18 1 -4
BITMAP
10
18
18
FF
18
18
18
18
10
10
18
18
18
18
FF
18
18
10
ENDCHAR
STARTCHAR 2022
ENCODING 8226
SWIDTH 336 0
DWIDTH 7 0
BBX 5 5 1 4
BITMAP
70
F8
F8
F8
70
ENDCHAR
STARTCHAR 2026
ENCODING 8230
SWIDTH 672 0
DWIDTH 14 0
BBX 11 2 1 0
BITMAP
8420
8420
ENDCHAR
STARTCHAR 202F
ENCODING 8239
SWIDTH 144 0
DWIDTH 3 0
BBX 0 0 0 0
BITMAP
ENDCHAR
STARTCHAR 2030
ENCODING 8240
SWIDTH 960 0
DWIDTH 20 0
BBX 18 14 1 -1
BITMAP
002000
184000
6FC000
4C8000
CD0000
C90000
CA6180
75B6C0
0934C0
0A3CC0
123CC0
222C80
21C500
000200
ENDCHAR
STARTCHAR 2032
ENCODING 8242
SWIDTH 144 0
DWIDTH 3 0
BBX 1 4 1 10
BITMAP
80
80
80
80
ENDCHAR
STARTCHAR 2033
ENCODING 8243
SWIDTH 288 0
DWIDTH 6 0
BBX 4 4 1 10
BITMAP
90
B0
A0
A0
ENDCHAR
STARTCHAR 2039
ENCODING 8249
SWIDTH 240 0
DWIDTH 5 0
BBX 2 4 2 2
BITMAP
40
80
80
40
ENDCHAR
STARTCHAR 203A
ENCODING 8250
SWIDTH 240 0
DWIDTH 5 0
BBX 2 5 2 2
BITMAP
80
40
40
80
80
ENDCHAR
STARTCHAR 203E
ENCODING 8254
SWIDTH 384 0
DWIDTH 8 0
BBX 0 0 0 0
BITMAP
ENDCHAR
STARTCHAR 2044
ENCODING 8260
SWIDTH 144 0
DWIDTH 3 0
BBX 9 14 -3 0
BITMAP
0080
0100
0100
0200
0200
0400
0800
0800
1000
2000
2000
4000
4000
8000
ENDCHAR
STARTCHAR 2053
ENCODING 8275
SWIDTH 816 0
DWIDTH 17 0
BBX 14 4 1 2
BITMAP
3C00
4704
8188
8070
ENDCHAR
STARTCHAR 205F
ENCODING 8287
SWIDTH 240 0
DWIDTH 5 0
BBX 0 0 0 0
BITMAP
ENDCHAR
STARTCHAR 2060
ENCODING 8288
SWIDTH 0 0
DWIDTH 0 0
BBX 0 0 0 0
BITMAP
ENDCHAR
STARTCHAR 20AC
ENCODING 8364
SWIDTH 624 0
DWIDTH 13 0
BBX 11 11 0 0
BITMAP
07C0
0820
1000
2000
FFC0
2000
FF80
2000
1000
0820
07C0
ENDCHAR
STARTCHAR 2122
ENCODING 8482
SWIDTH 816 0
DWIDTH 17 0
BBX 16 7 0 7
BITMAP
FF83
92C6
1146
116A
112A
1132
3997
ENDCHAR
STARTCHAR 2212
ENCODING 8722
SWIDTH 528 0
DWIDTH 11 0
BBX 10 1 0 4
BITMAP
FFC0
ENDCHAR
STARTCHAR E000
ENCODING 57344
SWIDTH 384 0
DWIDTH 8 0
BBX 8 8 0 0
BITMAP
FF
FF
FF
FF
FF
FF
FF
FF
ENDCHAR
STARTCHAR FEFF
ENCODING 65279
SWIDTH 0 0
DWIDTH 0 0
BBX 0 0 0 0
BITMAP
ENDCHAR
ENDFONT
